
    <svg xmlns="http://www.w3.org/2000/svg" width="1000" height="500" viewBox="0 0 1000 500">
      <rect fill="white" width="1000" height="500"/>
      <g fill="none" stroke="black" stroke-width="1">
        <path d="M 948.1461011757144 502.7272539153593 L 500.78405805758877 499.4375066276835 L 948.1461011757158 502.7272539153593 L 948.1461011757166 502.7272539153593 L 948.1461011757173 502.7272539153593 L 948.1461011757176 502.7272539153593 L 948.1461011757185 502.7272539153593 L 948.1461011757192 502.7272539153593 L 948.1461011757202 502.7272539153593 L 948.1461011757208 502.7272539153593 L 948.146101175721 502.7272539153593 L 948.146101175722 502.7272539153593 L 948.1461011757225 502.7272539153593 L 948.1461011757232 502.7272539153593 L 948.1461011757236 502.7272539153593 L 948.1461011757243 502.7272539153593 L 948.1461011757245 502.7272539153593 L 948.1461011757256 502.7272539153593 L 948.1461011757258 502.7272539153593 L 948.146101175727 502.7272539153593 L 948.1461011757267 502.7272539153593 L 948.1461011757261 502.7272539153593 L 948.1461011757281 502.7272539153593 L 948.1461011757284 502.7272539153593 L 948.146101175729 502.7272539153593 L 948.1461011757293 502.7272539153593 L 948.1461011757294 502.7272539153593 L 948.1461011757303 502.7272539153593 L 948.1461011757303 502.7272539153593 L 948.1461011757308 502.7272539153593 L 948.1461011757315 502.7272539153593 L 948.1461011757318 502.7272539153593 L 948.1461011757315 502.7272539153593 L 948.1461011757324 502.7272539153593 L 948.1461011757334 502.7272539153593 L 948.1461011757331 502.7272539153593 L 948.1461011757331 502.7272539153593 L 948.1461011757341 502.7272539153593 L 948.1461011757344 502.7272539153593 L 948.1461011757344 502.7272539153593 L 948.1461011757341 502.7272539153593 L 948.146101175735 502.7272539153593 L 948.1461011757364 502.7272539153593 L 948.146101175735 502.7272539153593 L 948.1461011757352 502.7272539153593 L 948.1461011757352 502.7272539153593 L 948.1461011757356 502.7272539153593 L 948.1461011757356 502.7272539153593 L 948.1461011757356 502.7272539153593 L 948.1461011757357 502.7272539153593 L 948.146101175736 502.7272539153593 L 948.1461011757362 502.7272539153593 L 948.1461011757364 502.7272539153593 L 948.1461011757362 502.7272539153593 L 948.1461011757364 502.7272539153593 L 948.1461011757365 502.7272539153593 L 948.1461011757364 502.7272539153593 L 948.1461011757359 502.7272539153593 L 948.1461011757359 502.7272539153593 L 948.1461011757365 502.7272539153593 L 948.1461011757357 502.7272539153593 L 948.1461011757356 502.7272539153593 L 948.1461011757356 502.7272539153593 L 948.1461011757362 502.7272539153593 L 948.1461011757352 502.7272539153593 L 948.1461011757352 502.7272539153593 L 948.146101175735 502.7272539153593 L 948.146101175735 502.7272539153593 L 948.1461011757347 502.7272539153593 L 948.1461011757344 502.7272539153593 L 948.1461011757339 502.7272539153593 L 948.1461011757339 502.7272539153593 L 948.1461011757339 502.7272539153593 L 948.1461011757337 502.7272539153593 L 948.1461011757333 502.7272539153593 L 948.1461011757327 502.7272539153593 L 948.1461011757322 502.7272539153593 L 948.1461011757323 502.7272539153593 L 948.1461011757322 502.7272539153593 L 948.1461011757315 502.7272539153593 L 948.1461011757303 502.7272539153593 L 948.1461011757305 502.7272539153593 L 948.1461011757308 502.7272539153593 L 948.1461011757293 502.7272539153593 L 948.1461011757294 502.7272539153593 L 948.1461011757293 502.7272539153593 L 948.146101175729 502.7272539153593 L 948.1461011757278 502.7272539153593 L 948.1461011757274 502.7272539153593 L 948.1461011757269 502.7272539153593 L 948.1461011757264 502.7272539153593 L 948.1461011757256 502.7272539153593 L 948.1461011757252 502.7272539153593 L 948.1461011757249 502.7272539153593 L 948.1461011757241 502.7272539153593 L 948.1461011757237 502.7272539153593 L 948.1461011757232 502.7272539153593 L 948.1461011757217 502.7272539153593 L 948.146101175722 502.7272539153593 L 948.1461011757217 502.7272539153593 L 948.1461011757207 502.7272539153593 L 948.1461011757195 502.7272539153593 L 948.1461011757197 502.7272539153593 L 948.1461011757189 502.7272539153593 L 948.146101175718 502.7272539153593 L 948.1461011757162 502.7272539153593 L 948.1461011757169 502.7272539153593 L 948.1461011757169 502.7272539153593 L 948.1461011757156 502.7272539153593 L 948.1461011757148 502.7272539153593 L 948.1461011757139 502.7272539153593 L 948.1461011757133 502.7272539153593 L 948.1461011757125 502.7272539153593 L 948.1461011757117 502.7272539153593 L 948.146101175711 502.7272539153593 L 948.1461011757103 502.7272539153593 L 948.1461011757095 502.7272539153593 L 948.1461011757091 502.7272539153593 L 948.1461011757087 502.7272539153593 L 948.1461011757078 502.7272539153593 L 948.1461011757061 502.7272539153593 L 948.146101175706 502.7272539153593 L 948.1461011757051 502.7272539153593 L 948.146101175705 502.7272539153593 L 948.1461011757042 502.7272539153593 L 948.1461011757034 502.7272539153593 L 948.1461011757026 502.7272539153593 L 948.1461011757019 502.7272539153593 L 948.1461011757016 502.7272539153593 L 948.1461011757006 502.7272539153593 L 948.1461011756996 502.7272539153593 L 948.1461011756993 502.7272539153593 L 948.1461011756983 502.7272539153593 L 948.1461011756974 502.7272539153593 L 948.1461011756968 502.7272539153593 L 948.1461011756961 502.7272539153593 L 948.1461011756953 502.7272539153593 L 948.1461011756948 502.7272539153593 L 948.1461011756941 502.7272539153593 L 948.1461011756936 502.7272539153593 L 948.1461011756926 502.7272539153593 L 948.146101175692 502.7272539153593 L 948.1461011756912 502.7272539153593 L 948.1461011756904 502.7272539153593 L 948.14610117569 502.7272539153593 L 948.1461011756892 502.7272539153593 L 948.1461011756887 502.7272539153593 L 948.1461011756882 502.7272539153593 L 948.1461011756877 502.7272539153593 L 948.146101175687 502.7272539153593 L 948.1461011756863 502.7272539153593 L 948.1461011756851 502.7272539153593 L 948.1461011756851 502.7272539153593 L 948.1461011756846 502.7272539153593 L 948.146101175684 502.7272539153593 L 948.1461011756833 502.7272539153593 L 948.146101175683 502.7272539153593 L 948.1461011756825 502.7272539153593 L 948.1461011756819 502.7272539153593 L 948.1461011756813 502.7272539153593 L 948.1461011756803 502.7272539153593 L 948.1461011756803 502.7272539153593 L 948.1461011756796 502.7272539153593 L 948.1461011756792 502.7272539153593 L 948.1461011756792 502.7272539153593 L 948.1461011756783 502.7272539153593 L 948.1461011756783 502.7272539153593 L 948.1461011756776 502.7272539153593 L 948.146101175677 502.7272539153593 L 948.1461011756769 502.7272539153593 L 948.1461011756761 502.7272539153593 L 948.1461011756762 502.7272539153593 L 948.1461011756766 502.7272539153593 L 948.1461011756754 502.7272539153593 L 948.1461011756753 502.7272539153593 L 948.1461011756753 502.7272539153593 L 948.1461011756746 502.7272539153593 L 948.1461011756736 502.7272539153593 L 948.146101175674 502.7272539153593 L 948.1461011756743 502.7272539153593 L 948.1461011756736 502.7272539153593 L 948.1461011756735 502.7272539153593 L 948.1461011756733 502.7272539153593 L 948.1461011756732 502.7272539153593 L 948.1461011756729 502.7272539153593 L 948.1461011756736 502.7272539153593 L 948.1461011756729 502.7272539153593 L 948.1461011756721 502.7272539153593 L 948.1461011756725 502.7272539153593 L 948.1461011756728 502.7272539153593 L 948.1461011756729 502.7272539153593 L 948.1461011756733 502.7272539153593 L 948.1461011756726 502.7272539153593 L 948.1461011756718 502.7272539153593 L 948.1461011756725 502.7272539153593 L 948.1461011756728 502.7272539153593 L 948.1461011756728 502.7272539153593 L 948.1461011756726 502.7272539153593 L 948.1461011756728 502.7272539153593 L 948.1461011756729 502.7272539153593 L 948.1461011756733 502.7272539153593 L 948.1461011756732 502.7272539153593 L 948.1461011756732 502.7272539153593 L 948.1461011756735 502.7272539153593 L 948.1461011756736 502.7272539153593 L 948.1461011756736 502.7272539153593 L 948.1461011756746 502.7272539153593 L 948.1461011756743 502.7272539153593 L 948.1461011756743 502.7272539153593 L 948.146101175675 502.7272539153593 L 948.146101175675 502.7272539153593 L 948.1461011756754 502.7272539153593 L 948.1461011756762 502.7272539153593 L 948.1461011756755 502.7272539153593 L 948.1461011756753 502.7272539153593 L 948.146101175677 502.7272539153593 L 948.146101175678 502.7272539153593 L 948.1461011756776 502.7272539153593 L 948.1461011756777 502.7272539153593 L 948.1461011756783 502.7272539153593 L 948.1461011756784 502.7272539153593 L 948.1461011756794 502.7272539153593 L 948.1461011756794 502.7272539153593 L 948.1461011756794 502.7272539153593 L 948.1461011756802 502.7272539153593 L 948.1461011756811 502.7272539153593 L 948.1461011756817 502.7272539153593 L 948.1461011756826 502.7272539153593 L 948.1461011756826 502.7272539153593 L 948.1461011756822 502.7272539153593 L 948.1461011756835 502.7272539153593 L 948.1461011756844 502.7272539153593 L 948.1461011756846 502.7272539153593 L 948.146101175686 502.7272539153593 L 948.1461011756854 502.7272539153593 L 948.1461011756854 502.7272539153593 L 948.1461011756875 502.7272539153593 L 948.1461011756885 502.7272539153593 L 948.1461011756885 502.7272539153593 L 948.1461011756892 502.7272539153593 L 948.14610117569 502.7272539153593 L 948.1461011756901 502.7272539153593 L 948.1461011756904 502.7272539153593 L 948.1461011756918 502.7272539153593 L 948.1461011756925 502.7272539153593 L 948.1461011756929 502.7272539153593 L 948.1461011756936 502.7272539153593 L 948.1461011756942 502.7272539153593 L 948.1461011756952 502.7272539153593 L 948.1461011756957 502.7272539153593 L 948.1461011756968 502.7272539153593 L 948.1461011756973 502.7272539153593 L 948.1461011756973 502.7272539153593 L 948.1461011756983 502.7272539153593 L 948.1461011756993 502.7272539153593 L 948.1461011757 502.7272539153593 L 948.1461011757012 502.7272539153593 L 948.146101175701 502.7272539153593 L 948.1461011757016 502.7272539153593 L 948.146101175703 502.7272539153593 L 948.1461011757034 502.7272539153593 L 948.1461011757038 502.7272539153593 L 948.146101175705 502.7272539153593 L 948.1461011757061 502.7272539153593 L 948.1461011757066 502.7272539153593 L 948.1461011757068 502.7272539153593 L 948.1461011757078 502.7272539153593 L 948.146101175709 502.7272539153593 L 948.1461011757094 502.7272539153593 L 948.1461011757094 502.7272539153593 L 948.1461011757107 502.7272539153593 L 948.1461011757116 502.7272539153593 L 948.146101175712 502.7272539153593 L 948.1461011757125 502.7272539153593 L 500.4691398288641 500.5659795325452 L 500.17500172055827 499.80499551655237 L 998.3179638885726 500.2355727498252 L 998.9672943155499 495.5670584610334 L 999.0947428085365 491.7282503566996 L 999.1575104514218 488.0340170086669 L 999.1971180273889 484.3458742418745 L 999.2251014526854 480.68431006070864 L 999.2464272626942 477.0647950066552 L 999.2636685660365 473.48154909724224 L 999.278154002219 469.9501719241337 L 999.3711126973977 466.4361006821421 L 0.6051899318273336 462.53062188635386 L 998.5793151173093 460.37480921136773 L 994.8823786113833 460.0691817764299 L 991.0698807943729 459.80674853897466 L 987.4380912175421 459.4733595451667 L 983.7470737041573 459.17381794936847 L 979.9627592344038 458.91740743927807 L 976.7182739779724 457.97060713350265 L 974.6525191725469 456.1923670611482 L 974.9929729375453 454.27033326293 L 976.6715109119552 452.28261173044973 L 974.4116177396572 451.03263678161363 L 970.2578187182393 450.1676441987665 L 966.5802529262013 449.4750859392919 L 962.9293114512011 448.88283889239585 L 959.635032079467 448.2281082267731 L 956.3661853958845 447.6390570855772 L 952.7706419068649 447.32522842534553 L 949.0978107720485 447.0087626114979 L 945.4678074239591 446.41328278750655 L 941.7914503270774 445.7777032707172 L 937.7234045779832 445.23462857820016 L 933.7978185287697 444.46746199536426 L 930.158597025997 443.2294853514359 L 926.7356325138505 442.0936463080335 L 923.5418423647944 441.15016910823897 L 919.9583448818524 440.5172591430393 L 915.8475737089792 440.20818406725084 L 912.2252517857385 440.2892316369142 L 908.9939343339678 440.69458788714604 L 905.4846523625305 440.4969405190334 L 901.8598941047566 439.78888655148955 L 898.2171036089871 439.403575111077 L 894.5594115559434 439.1503491003537 L 891.2171938571292 438.6264653017247 L 887.9819003243969 438.025719958035 L 884.0632421032019 437.6426685730178 L 880.0459233753027 437.4212147557294 L 877.0710909670944 437.3838970845253 L 874.1806655395685 437.40948618007604 L 870.9164430419589 437.37139040098066 L 867.635158139441 437.4239847924452 L 864.368401964984 437.6935497910222 L 861.1004048988798 438.00550091763233 L 857.8658981015211 438.32405961669707 L 854.4629604037465 438.50810370965564 L 850.7854612151067 438.45538116868255 L 847.3003110876498 438.55101122067674 L 844.046094725944 438.855337364834 L 840.7909333888082 439.1677572761604 L 837.5278108707777 439.4777996815346 L 834.2579327546056 439.60070167466336 L 830.9949991482711 439.5642922553092 L 827.4647258145394 439.6132742765523 L 823.7936701912756 439.62513584195875 L 820.3931391274738 438.91470078075713 L 817.2133421863015 437.95641304508257 L 813.6880251963449 437.98032151705354 L 809.9831536669187 438.4039131137217 L 806.6736924653459 438.78157972547757 L 803.4235760562748 438.9678867309118 L 800.1732959719017 438.4439378214633 L 796.8309695138213 437.8185492157969 L 792.8368792313079 437.5121576976625 L 788.8638754958447 437.2488764975033 L 785.2256894626967 436.92147388237225 L 781.6178262833431 436.72168233031937 L 777.9841300548738 436.72431935999026 L 774.3378984655625 436.72948894618344 L 770.675524211593 436.69022406220523 L 767.2092980731122 436.80543403124517 L 763.9268010752786 437.082690207826 L 760.8946106380233 437.54243538175695 L 758.0489723050051 438.16175047531965 L 754.926141543398 438.5669051956376 L 751.6194818001026 438.8137687322836 L 748.349945016523 439.09261380107796 L 745.081596441267 439.3779278863931 L 741.8082753047745 439.6939204176264 L 738.5438185301067 439.96495525993254 L 735.6224046085653 440.0082523573518 L 732.7038714685743 439.9716172659164 L 729.0417747217172 439.8910756910963 L 725.4885551910324 439.98368506873805 L 722.644307857777 440.60001633856155 L 719.6228212709034 441.11613488306114 L 715.9625121379562 441.08364734329297 L 712.3843683087453 441.1000529848353 L 708.9947926217255 441.30637150463093 L 706.0256437760418 441.96414742602707 L 703.6330279678257 443.42628936703164 L 701.2413135245571 443.9269024018226 L 699.041311739813 443.5830907929167 L 696.4859761800482 442.76358182205246 L 693.6623453611181 441.3734312996223 L 690.5711337529315 440.89749331417585 L 687.2121441280713 441.0040513220865 L 683.6844626932175 441.0416365109883 L 680.028058314978 441.03711216414064 L 676.379377972779 440.787719981298 L 672.7634042299173 440.4581084636459 L 669.1017495426315 440.478954613821 L 665.4955397272377 440.43970882480386 L 662.1657772145591 439.6446157799397 L 658.9359403280597 438.6979185893247 L 655.3322555684125 437.97259728662584 L 651.6729723588799 437.6015657948257 L 648.0340391632855 437.85301532598714 L 644.4648134680842 438.2086171444562 L 641.0962223727154 438.42207826447606 L 638.1186672315993 438.9107552290439 L 635.6788095280664 439.8455795187827 L 633.0302275465563 440.64285566078655 L 630.1002326211161 441.2131463406894 L 627.2006203953306 441.8066215105678 L 624.3334813488326 442.42799072334446 L 621.1942375617381 442.8395772687964 L 617.869473958361 443.0865847629145 L 614.8415901365892 443.57088058170007 L 611.9835257107898 444.2165310847295 L 609.1418564136658 444.8854202758202 L 606.2245013190075 445.4842206601732 L 603.034709891583 445.66906936988056 L 599.7161008511197 445.5507424593318 L 596.0025161836243 444.8814266621108 L 592.4864582506353 444.35090918060547 L 589.5055253673793 444.81326081422657 L 586.7106011699556 445.6071948553843 L 584.291454107711 446.60135355979776 L 581.5834629754231 447.4041304923796 L 578.322936117551 447.71794893279866 L 574.9982808831238 447.9881688027782 L 571.771614771225 448.33872728994857 L 568.3482034445216 448.53104159122256 L 564.6818372138972 448.5065256514804 L 561.2206373319436 448.4966622013408 L 557.9828935208553 448.5195988448133 L 554.5062140099935 448.3682967013214 L 550.8580055167348 448.0306030781122 L 547.1882420319575 447.4417981687846 L 543.5877079333093 446.7452519079811 L 540.2897300819893 446.80422365626697 L 537.0071431789107 447.22305265816385 L 533.4510397764644 447.30705317415243 L 529.7943952706078 447.2611132156596 L 526.1300091887399 447.221679402291 L 522.5362664922319 447.2549693150755 L 519.2883681212124 447.5680594076489 L 515.9850456425817 447.86676489877107 L 512.367477891144 447.9270249193192 L 508.7085783008385 447.81526850777436 L 505.032694962342 447.41797598243915 L 501.54604823188663 447.2693753729763 L 498.2883241886746 447.5959764640533 L 495.0319143607583 447.9624426041156 L 491.78070733694756 448.3139955541123 L 488.4953385620723 448.47530489959996 L 485.2158048387496 448.41894561570274 L 481.96066374570404 448.5843050687315 L 478.6919597476679 448.95887584274516 L 475.6131840324526 449.0538420907102 L 472.71585687054693 448.9974206029241 L 469.84551835919376 449.4256937757475 L 466.97079765922615 450.15288577585466 L 464.00376221949216 450.5127486020667 L 461.1076920345539 450.8189023851382 L 458.5293775486673 451.67923984772654 L 456.0293818552737 452.71094931721177 L 453.2544928148598 453.43814271905154 L 450.2162199686469 454.0152644265575 L 446.85450745605465 454.3010422669893 L 443.7135933557541 454.7203383470798 L 441.2272669530436 455.7275590243997 L 438.6443801723368 456.6882253980667 L 435.5924608856181 457.2872820355828 L 432.8924877216337 458.28867751059255 L 431.13202061791355 460.33346930609895 L 428.51179538351545 461.05069613326935 L 425.5621239452841 460.63606660298814 L 422.05100570320764 460.0702888521108 L 417.9744072896321 459.3406419041601 L 414.66290097413327 458.83959786855496 L 411.8162052355976 458.51021821321007 L 408.43995746145083 458.3645027087572 L 404.72990391598114 458.40695062677776 L 401.3862351367047 458.7336487806144 L 398.1374123556515 459.0922304730451 L 394.5103083697541 458.62976361097424 L 390.9276027075225 457.83718343806237 L 387.6888273317404 457.4554043246029 L 384.36078201304196 457.1564567955553 L 380.280197355471 456.9149688988206 L 376.37279736767596 456.4248119872592 L 373.2034072587159 455.00963994421795 L 369.87404264476004 453.87305356647073 L 365.81391357102433 453.45465481059875 L 361.993962790097 453.42829142858625 L 358.7747354340171 453.85527483464864 L 355.3129022632962 453.99855488394013 L 351.5269735123506 453.717720702471 L 348.1719571835792 452.8230376299569 L 345.67536614173616 451.1145373550055 L 344.2890320893618 449.13785435312445 L 344.09566042045134 446.8958327834674 L 345.127796842011 444.2939353214786 L 347.2080541979264 441.50299862715156 L 349.0491472874442 439.45874296686515 L 350.91063681953705 437.75320526635693 L 352.88370601779366 436.2612589323188 L 354.6246877095125 434.84852451305187 L 355.6517714469126 433.37384852100155 L 355.42944428067 432.05137615809184 L 351.3068348486044 431.1897103999607 L 347.7484889261304 430.4478936457422 L 347.56059619710675 429.9197147668383 L 347.9479103443653 429.3243460697877 L 349.4886798611473 428.43105680288556 L 349.48068216306666 427.81865649593556 L 345.6380053026133 427.7844729067252 L 341.906080819507 428.07930779341916 L 339.0657237947551 428.6740273747009 L 335.98703801822603 429.10237561493915 L 332.6283644157658 429.29854869492834 L 329.7483657032175 429.8406082433977 L 327.27288098292763 430.7136946441839 L 324.74977254408435 431.5513357511441 L 322.2049346987783 432.37999307363583 L 319.6996968851718 433.23624826483825 L 317.1528824726443 434.0786177534515 L 314.25563638815515 434.6712598101539 L 311.3380556530688 435.22728337585096 L 309.0546641100996 436.2823471223422 L 306.9365023636343 437.48520546552595 L 304.45066701790944 438.3907565800574 L 301.85024166511374 439.245621816658 L 299.24607819168455 440.1039417580353 L 296.7877357270078 441.05907516903767 L 294.7371984821806 442.32594767734764 L 292.35295083752413 443.3847845468171 L 289.43473365118786 443.9901805922106 L 286.4721532987803 444.5757213301993 L 283.61607369388713 445.2290214625434 L 280.5422446898663 445.71760937466144 L 277.24551160753055 446.00658040314715 L 273.91626919499214 446.2793333476155 L 270.57875564687873 446.551342039765 L 267.5741720365968 447.1971543737163 L 265.01359767972804 448.20079420068714 L 264.35448510119255 449.52569986222096 L 264.73772179383434 450.8646643468056 L 262.1862849219171 450.48664822164255 L 258.1018245003096 449.24539314239996 L 254.48773367816625 449.0631685841768 L 250.79985787589632 449.16708374584744 L 247.5177389259165 449.17030340161864 L 244.2423340049181 449.1746597860388 L 240.63030864830927 449.1789498407414 L 236.97800476666623 449.181237494737 L 233.2761928338758 449.1389622281256 L 229.84494042023996 449.2314757188503 L 226.96729943959073 449.55303485185 L 223.97974343974113 449.90520063026116 L 220.71792138290732 450.26483101412043 L 217.42444398408475 450.4538449108152 L 214.17181501760845 450.43522967647124 L 210.73324000861544 450.423746297738 L 207.08449722630695 450.42741031175564 L 203.4277534251005 450.41193408272954 L 199.78083366141902 450.3968678283986 L 196.3971700319639 450.6016479439881 L 193.15207279129163 450.9639078736967 L 189.90012136627593 451.31980139826453 L 186.6232373856514 451.63779285618864 L 183.3362038459751 451.6820772957277 L 180.074224163827 451.66495390555764 L 176.75457227086693 451.89931637380846 L 173.54001960105956 452.29943832345776 L 170.5915503355441 452.91049613134857 L 167.72535748339814 453.5993272953217 L 164.92821315381943 454.37723203960934 L 161.80956829296267 454.79615813171597 L 158.15564109235342 454.43985908080253 L 154.5973278472355 454.1281457674911 L 151.25816525148085 454.06589642085953 L 148.17681938075557 454.3453413526914 L 145.397396376363 455.1145483135932 L 142.11479281550186 455.4843252463576 L 138.34618573126423 455.370946464882 L 135.1308051002298 455.7070162438492 L 132.33129635341507 456.4605637067614 L 129.20967192118923 456.93909180217054 L 125.88499473328268 457.23501670254933 L 122.61014700790646 457.56245647846885 L 119.33695639743054 457.89645878983913 L 116.06883309532485 458.26478308157095 L 112.79415013667086 458.5823901478717 L 109.83771370702797 458.6072591032088 L 106.9472467338614 458.6022593020862 L 103.63985661498663 458.8576111156878 L 100.42455636538368 459.282177720773 L 97.56509863011387 459.9705999880332 L 94.5961697507782 460.6032829237681 L 91.33889679657372 460.948509537158 L 88.01873667407736 461.2570866337604 L 84.67938894798021 461.5596642862151 L 81.56386377428953 462.0232647014719 L 78.76133290260702 462.75831667788464 L 75.70140644296401 463.30874648414806 L 72.39146931215777 463.62771278575207 L 69.11980494924674 463.9897215400486 L 65.87057772602417 464.38253965880915 L 62.351506178753226 464.3125826495683 L 58.720955321332724 463.8698321069858 L 55.11135976077905 463.76728248316226 L 51.45247605604419 463.81269256593964 L 47.79742433991103 463.53907702861505 L 44.20231384728679 463.16578197660357 L 40.596642592052966 463.0978450619174 L 36.94069136908943 463.1404597431609 L 33.304526818389256 463.1800155972904 L 29.67639921152912 463.1352220003823 L 26.02227412653338 462.82596426226166 L 22.420264611431328 462.4507341781997 L 18.72634045917007 462.11781482933293 L 15.29460989400333 461.7770301986965 L 12.440162836812538 461.43519664182884 L 9.308397326612944 461.08108535153696 L 5.473568770712234 460.64282576153124 L 2.6278155145408597 460.61335066881117 L 0.761267465789296 460.92507074735386 L 999.1082153789639 462.3555136262577 L 999.7149891755465 466.13741705351197 L 999.9725004336053 469.7549618210928 L 999.9579420779892 473.28584028274383 L 999.940666430675 476.8647120840238 L 999.9193342688048 480.48388069717754 L 999.8914661668399 484.14192885786616 L 999.8522008341695 487.8295384318713 L 999.7900480152708 491.5452160424108 L 999.6707506891661 495.27934033810857 L 999.2340167563829 499.46386268542403 L 948.1461011757144 502.7272539153593 Z" data-length="3.1349246173893177" />
<path d="M 370.5760992998131 421.6404581430421 L 371.8945195564365 421.6404682438222 L 373.21303667492305 421.6404735054689 L 374.5315856634963 421.6404734708455 L 375.85010151422455 421.64046814313116 L 376.9673072088138 421.29364605439963 L 375.8500999914509 420.94698790431556 L 374.5315851515529 420.94698173171054 L 373.21303717389554 420.9469816930252 L 371.89366071427054 420.94533450779966 L 370.5760992998131 421.6404581430421 Z" data-length="0.04603202890081082" />
<path d="M 305.9891302906203 406.77686589444573 L 306.733622025609 406.7637541476191 L 307.57593702636046 406.6299652175745 L 308.4743907183675 406.4088678220235 L 309.3882127067858 406.1342066062152 L 310.277875877393 405.8401909290378 L 311.1052006264242 405.5615058894976 L 311.8041839163541 405.34165037983735 L 312.5013333845964 405.14330081971576 L 313.21911862396513 404.93939273928686 L 313.88936711399725 404.7308977375309 L 314.4444402874953 404.51930348137824 L 314.8172310381204 404.30644798028027 L 314.9411135757477 404.0942211933245 L 314.58328024336464 403.82599534946576 L 313.68955043551824 403.5799625391897 L 312.4494788104959 403.3320797385658 L 311.0520224965666 403.0583149654084 L 309.6859916112301 402.7372278938215 L 308.5395159616378 402.3503230444472 L 307.7712493231769 401.8788970651445 L 307.26173723225253 401.2966937111574 L 306.90075543092996 400.63638036541624 L 306.60871127778347 399.94171642235887 L 306.3069959565825 399.2563175840685 L 305.9181307052088 398.6237228626125 L 305.36541051520913 398.0872460081457 L 304.6090167191785 397.69319571785786 L 303.6621263451915 397.38671679027345 L 302.6268425788802 397.1275924305407 L 301.60636629205004 396.87736959393635 L 300.704217595029 396.59878409769806 L 300.02393570460964 396.25555265719066 L 299.6659967844215 395.833120489716 L 299.58020572538567 395.3656041016956 L 299.67425051374283 394.8559474242812 L 299.8787010067487 394.3157583752542 L 300.12503845306327 393.75668721836917 L 300.345812042629 393.1905886200304 L 300.4746844038219 392.62953680224314 L 300.4897814454108 392.01315830551346 L 300.43634021819344 391.371298147454 L 300.3564466459702 390.7171380930412 L 300.2916229185344 390.06165019766775 L 300.28264584059593 389.41586948772135 L 300.369602564282 388.7908448558726 L 300.5937197590169 388.2056687161969 L 300.9879432417802 387.6703667598477 L 301.49639468270163 387.1607258331313 L 302.04817968476056 386.65843401796076 L 302.573116479513 386.14557595389266 L 303.00173036341516 385.6046505898468 L 303.26540485610104 385.01843411400773 L 303.31125911228696 384.25590892830525 L 303.13112344182105 383.4293720018015 L 302.81325084438015 382.56235922244554 L 302.44595675062516 381.6711808683847 L 302.1155272162616 380.77252348583494 L 301.90618068310727 379.88345070648523 L 301.8922276070051 379.01722944668023 L 302.0439179845197 378.15637610478854 L 302.2988729300536 377.2956144432107 L 302.6022891569503 376.43440786824556 L 302.9005072599414 375.5723770484339 L 303.1409853280038 374.7093320934322 L 303.2722745505032 373.8452162416655 L 303.2695204749133 372.9874628667523 L 303.1722337419114 372.1335845149546 L 303.0187921263862 371.2799304973154 L 302.84670351377343 370.4232361072916 L 302.6927374736498 369.56031156492804 L 302.59293297641165 368.6880424144464 L 302.5783684612237 367.781219794491 L 302.63105856593876 366.829057187894 L 302.72939454927786 365.86571838877586 L 302.85723382396367 364.8953758623888 L 302.9987912747139 363.922206855036 L 303.13863971548983 362.9503999909697 L 303.2617030070469 361.9841540874695 L 303.3272930529623 360.9475671312713 L 303.32670071600035 359.78769581349246 L 303.3134665532814 358.6037957531141 L 303.3401281680666 357.49566498078553 L 303.45806775499597 356.56249187777354 L 303.7182488679127 355.9028483790084 L 304.08950062384486 355.63695873893835 L 304.4790411514255 355.66828049804275 L 304.94359947876524 355.83607584514004 L 305.44231297843197 356.0659119275454 L 305.93346238070393 356.2835272539007 L 306.3743629712291 356.41483220083484 L 306.72159823223706 356.3859303075754 L 307.05354752610623 355.94425372382335 L 307.16486793159396 355.10667582685284 L 307.11111325148977 353.9999834300103 L 306.96944543172714 352.7397558835121 L 306.815355733872 351.44094568120374 L 306.7220188613213 350.2177041271918 L 306.74916387077764 349.18473444613073 L 306.83740595769046 348.2417666310521 L 306.9524781074017 347.31191859612335 L 307.0791296052311 346.3914362186135 L 307.2024032788115 345.47660564757217 L 307.3076234183267 344.56375621132855 L 307.38038936624 343.64925710585186 L 307.4093809912256 342.73749727540877 L 307.40302618622934 341.8281912508873 L 307.3767567008433 340.92116129330407 L 307.3456944437567 340.01683504739356 L 307.3246770548438 339.11564665058233 L 307.32826502218205 338.21803516134054 L 307.3751328905713 337.3084629620111 L 307.50641585685474 336.2469174977235 L 307.6899176861991 335.0958816939402 L 307.8778061508646 333.97384174483545 L 308.0237646402288 332.9976550684994 L 308.0826408067872 332.2827766495252 L 308.00956155920414 331.9439633897147 L 307.78062541505744 332.0446944114678 L 307.413979340307 332.4883300553667 L 306.95552198315363 333.1820770247622 L 306.45342565634155 334.0342840660086 L 305.9573317486546 334.9527677371981 L 305.51875167125075 335.8445350956304 L 305.1740511821468 336.65353601385254 L 304.8669228829628 337.5041065940804 L 304.5961786687421 338.38925242640835 L 304.365255316337 339.29882899184963 L 304.1777354181599 340.22257627405367 L 304.0373313760533 341.15011536372276 L 303.9478650536825 342.070947916785 L 303.95529062830747 342.9868496770795 L 304.09796653688136 343.91580625857335 L 304.3129342817938 344.8509027513339 L 304.53438350364195 345.7844245253169 L 304.69516381431896 346.70875839328903 L 304.7267880612122 347.61635202704196 L 304.55938234659203 348.499533860666 L 304.16462656489307 349.35285691386713 L 303.6053729741924 350.1832988704829 L 302.9562493831506 351.00070880260546 L 302.2931528909133 351.81544415545534 L 301.6931973250617 352.6385004428621 L 301.23474399548013 353.4814698735359 L 300.9736649075381 354.30938073064993 L 300.83902830045844 355.1404988183052 L 300.7817448107501 355.9808371659494 L 300.7556677583821 356.82905502499295 L 300.7137944335713 357.6837597286115 L 300.60822910448616 358.54351666558887 L 300.3870788970445 359.43382209626856 L 300.06524277559225 360.3985409302945 L 299.68120913965987 361.3801182114124 L 299.246744600531 362.3657157156466 L 298.7739914306309 363.34247962862713 L 298.2755065347096 364.2975706883398 L 297.7642827175323 365.21819164936966 L 297.26853900064776 366.03173663236834 L 296.73551862049294 366.793488585932 L 296.1743322938932 367.5311431295884 L 295.60324392922354 368.2587833559644 L 295.04063900919925 368.9906491768743 L 294.50501985379356 369.74113304197624 L 294.00778634103 370.53177035038823 L 293.5273686939516 371.3583972420719 L 293.0673955360153 372.1961946860742 L 292.62767413653194 373.0472797733781 L 292.2079943395065 373.91376152543785 L 291.8081307063612 374.79773957979427 L 291.4278446255413 375.70130278294096 L 291.03879177849274 376.70457482307796 L 290.6635046318304 377.7639587834395 L 290.31176126101604 378.84935759857575 L 289.9867355068439 379.94727011003704 L 289.69181412543765 381.04422130136027 L 289.4305817231913 382.12677202192583 L 289.21023781586996 383.16367960765854 L 289.03152223165597 384.1382166968457 L 288.8833153521643 385.1032763648852 L 288.76614256025505 386.0616346527958 L 288.68052697754626 387.0160527854772 L 288.6269951298398 387.96927499080624 L 288.60608298676203 388.9240263256121 L 288.6129792875798 389.8857299709248 L 288.6415083890127 390.85928919148586 L 288.7008508670967 391.8353255246819 L 288.8008879836711 392.80383505247977 L 288.9517370629215 393.75485056283026 L 289.1637215581654 394.67843120923925 L 289.4384246506903 395.5427561854032 L 289.7533192159411 396.3267303722271 L 290.12076401011836 397.0943793790617 L 290.53784514140506 397.8425322534353 L 291.0015085716825 398.5680265267826 L 291.50854871093713 399.2677133340042 L 292.05559863941386 399.9384621504037 L 292.5938892830869 400.53799231255175 L 293.1438719653609 401.1084172151331 L 293.7266019212536 401.6588349972299 L 294.35198229902545 402.1844750181119 L 295.0299476421527 402.68050111039435 L 295.77042517462985 403.14199513255573 L 296.5946149216091 403.5667308645998 L 297.58590044285387 403.94535777290463 L 298.69779925227897 404.27401473833953 L 299.8653612992395 404.567000988051 L 301.023388740459 404.8394044039428 L 302.10664399054826 405.1071531384524 L 303.0499054482485 405.3869340583899 L 303.63288084652584 405.6245073088346 L 304.06683861885267 405.8693897881457 L 304.44960330077066 406.1232520569533 L 304.81404115522025 406.3640038431685 L 305.19300944225495 406.5694568519133 L 305.6192950363026 406.7173148594795 L 305.9891302906203 406.77686589444573 Z" data-length="1.0737450741317993" />
<path d="M 256.83902977233595 135.96985239412297 L 257.6116722702614 135.7977299086607 L 258.98966434538704 135.23822096090944 L 260.58338708110847 134.63540965298984 L 261.97961691710657 134.31674076844303 L 263.2094371072669 134.2398836131325 L 264.45486110400327 134.255641153246 L 265.7684903427709 134.27790446568687 L 267.4797754273385 134.26919812810374 L 269.5810221816214 134.32091664181763 L 271.6923182079966 134.31203587451475 L 273.5545522822938 134.0916934171531 L 274.7916551262095 133.59285238815545 L 275.82949958532964 132.8883433684331 L 276.8802559771334 132.22319952558473 L 278.1550557835349 131.84149219545833 L 279.70966723974357 131.77268405824242 L 281.3686232928549 131.9033725432763 L 283.050139695133 132.11766265241639 L 284.772698167638 132.36230066120802 L 286.5559663978707 132.75127586742846 L 288.33171027522303 133.1560551838637 L 290.0854830059699 133.42458988865206 L 291.7266553022998 133.4887015472306 L 293.3594419942107 133.44224786690717 L 294.9724767435545 133.30828183905317 L 296.5303084624998 133.10453145928994 L 297.9978359627642 132.75689009350376 L 299.44199058729356 132.3324836708056 L 300.88877763378974 131.980078680008 L 302.3307136052943 131.84356507678706 L 303.7604491002159 131.9120487416726 L 305.1766777298473 132.04106493048636 L 306.5624533181127 132.08459709748536 L 307.85732710124597 131.97835223120885 L 309.1207963751058 131.79990730367962 L 310.36849291861614 131.55463852793793 L 311.6140444277933 131.24214201762544 L 312.890347332324 130.79904331012588 L 314.15574855446977 130.27537595615834 L 315.44763728266855 129.757123680235 L 316.81103689281815 129.3183603955555 L 318.2458922519332 128.9402304559176 L 319.7084498352197 128.59083328145158 L 321.1708313955746 128.23957037711727 L 322.6147032252401 127.87026386187247 L 324.05757901925705 127.49843219337306 L 325.50108933617446 127.12475197150405 L 326.944579877349 126.74959125676382 L 328.3993291804567 126.38859014459227 L 329.8585909484621 126.02989412838842 L 331.29201830523925 125.64421700887871 L 332.6553023406316 125.20442772657819 L 333.92932620053426 124.69555459873129 L 335.18310785635515 124.1586566050514 L 336.47130972732896 123.65139620248343 L 337.84467214615574 123.17657916211334 L 339.2689082656511 122.68615180349721 L 340.72166439768193 122.28729114957092 L 342.1835734406874 122.0934000802337 L 343.71141928960117 122.1708374731981 L 345.23933290280075 122.45279170929064 L 346.7191878803497 122.84382684458448 L 348.11413070705527 123.2791175840955 L 349.4091503512411 123.93764946904565 L 350.6380402891837 124.62332788167397 L 351.86393971321314 125.03762190780091 L 353.12477500372097 124.96297634445551 L 354.45998775507576 124.54355357247837 L 355.77236825957965 123.91338308641896 L 356.9279143765795 123.19351271355549 L 357.9753270902104 122.21464527327574 L 358.8320755415616 121.02999342767023 L 359.6056936451245 119.80174232381908 L 360.3848425411659 118.72560204463669 L 361.2935720100092 117.7944007362726 L 362.1538499880953 116.89547961767506 L 362.5970745810081 116.07069892912492 L 362.2421530548089 115.34728070049138 L 361.0770831107204 114.74529095157258 L 359.5251187793767 114.20518169946938 L 358.03651534202095 113.64424280858577 L 356.7861300374201 113.01683829279331 L 355.54589041795555 112.36827307625792 L 354.27013927483284 111.73360644330948 L 352.90011291437236 111.15225539150573 L 351.1733586712239 110.69097751397241 L 349.3928014112657 110.26716037047889 L 348.07591957945726 109.74322384518142 L 347.7255757478342 109.00131180383953 L 348.2994435734942 108.06663199178189 L 349.2804709276585 107.03520566332669 L 350.1223070892105 106.00857890458951 L 350.65536484488683 105.02834832613063 L 351.17514169416467 104.0240495554936 L 351.4492585248857 103.05015447474732 L 351.2194921381528 102.1571732035965 L 350.28547870162936 101.33508017924123 L 348.8661939601229 100.59171669482066 L 347.26247967193694 99.89925800249685 L 345.6873681420907 99.2386315038958 L 343.91149714760144 98.66860056532191 L 342.09519787589556 98.12021450077667 L 340.46787263103533 97.49112942650035 L 339.23285055024564 96.76484626857467 L 338.19803597508593 95.96433760830965 L 337.29508070909657 95.10355559564157 L 336.475175946975 94.20002019317641 L 335.80062317221183 93.19231604309464 L 335.2584155987484 92.12629827418637 L 334.6981205622166 91.06644353645545 L 334.0003141583133 90.09978204280758 L 333.2133831290511 89.22699321098341 L 332.36807943868087 88.37132961211093 L 331.501462009731 87.48844900071971 L 330.4913323423393 86.48585211974904 L 329.3094374351382 85.43141055804557 L 328.24336079507583 84.33826821596223 L 327.58958867136784 83.1904327920016 L 327.74634214713063 81.87614843279555 L 328.41368091943656 80.48752799700993 L 328.8820268659854 79.16827974677118 L 328.4907093575661 78.11556692240315 L 327.42914159306355 77.34558511570036 L 326.0243325250124 76.65221010421222 L 324.58377993684417 75.9357588455499 L 323.0317786941018 74.99382673261634 L 321.0639963289993 73.83751414905949 L 319.4278998648086 72.79782617659545 L 318.9652142571279 72.19285280942871 L 319.30014299271033 72.11357580294336 L 319.87020071623596 72.11740263325784 L 320.5652445912015 72.16079234260391 L 321.4947267364716 72.22931763380782 L 323.15016088521526 72.4972895299983 L 324.9907860236673 72.80824748512613 L 326.6908162675284 72.92471846506908 L 328.18938490440223 72.60748561251293 L 329.67637770640226 71.88742207365802 L 330.89446341037626 70.97220990601821 L 331.5669004956429 70.06184768651647 L 331.43492442043004 69.12868692154055 L 330.60002148075824 68.13213447008324 L 329.38041046110936 67.14572204645744 L 328.0908816511453 66.24349169310042 L 326.49151544919664 65.45832583203703 L 324.68395894319485 64.71884970519801 L 323.0105182632623 63.94568600565151 L 321.79308304823655 63.05517825387905 L 321.0033151957374 62.057175969514866 L 320.31116844881376 61.032174508688264 L 319.35344492188904 60.06088938502201 L 317.94850142719093 59.21069357020359 L 316.25987036757783 58.42031968627208 L 314.46180594865615 57.64954073472891 L 312.73183810688676 56.86153650185288 L 311.01949277671827 56.078015294348816 L 309.29699166077455 55.29189009434663 L 307.6302825932716 54.47623773530085 L 306.03869229374214 53.57393657379615 L 304.54996663316825 52.58254849636236 L 303.1116945228049 51.55874857626831 L 301.6137894874463 50.538176319925654 L 300.0192530184513 49.522853945054656 L 298.38837508401286 48.49747633034281 L 296.65035466878294 47.492352238303056 L 294.7470438679577 46.54761224578721 L 292.6519280675593 45.701002300420235 L 290.3928610365611 44.892734005934265 L 288.1972640495413 44.11589629372692 L 286.34066916243563 43.41657083972027 L 284.45585913683004 42.78292168944257 L 282.82740750954184 42.17494639078655 L 282.0857241356567 41.61652876588807 L 282.76213652060983 41.18905573177914 L 284.5358182913764 40.85119138753117 L 286.61903975202733 40.50321616595672 L 288.25287081114163 40.025615472000965 L 289.2740588361396 39.11326069842561 L 289.7794794005652 38.029481003136844 L 290.4566194180567 37.0045081477363 L 291.7955887580655 36.33206858912609 L 293.6009255901901 35.95925095158744 L 295.52317609297097 35.64079652827117 L 296.9607471280946 35.26885940869684 L 297.3163729279958 34.62350338471336 L 296.3733135483621 33.761561243782225 L 295.03022715875653 32.90636176541316 L 294.38582657777425 32.265157992295265 L 294.37964975342624 32.02517453310898 L 294.4620672306754 31.81913907928692 L 294.77850296494023 31.655099903658744 L 295.6237409400831 31.539812492333716 L 297.48983363107874 31.560801597136077 L 299.7922150243435 31.651261705598994 L 301.9610380403499 31.67065751589039 L 303.8480510448558 31.436246097848652 L 305.6893454766646 30.941249338470517 L 307.3037536169534 30.46199672051498 L 308.47678212614477 30.278171083796067 L 309.1597077647572 30.600214163904838 L 309.2868990484706 31.262033975133996 L 308.8912652506916 31.995868410570296 L 308.00752774369533 32.53412405531364 L 306.47655694549087 32.88834769988761 L 304.6015179739601 33.212519846193956 L 302.89009886629697 33.595702703655625 L 301.4760099183181 34.27135216509384 L 300.46101220743793 35.229979571416855 L 299.80279702155974 36.27249752975865 L 299.285400129941 37.26753111746979 L 298.7306739712938 38.07774731355222 L 298.2066770987206 38.859534853656704 L 298.05074987462655 39.62697932993464 L 298.5861639466055 40.409480365284104 L 299.8863387729125 41.332080850604235 L 301.6830683030139 42.241030257898004 L 303.7837430332849 42.947766427726144 L 305.8135125982132 43.25770707371323 L 307.9375693189499 43.30415961382149 L 310.21436901795084 43.25087196789619 L 312.4402161264126 43.21217789208348 L 314.4519500233543 43.2131567333223 L 316.438623795302 43.19886790002604 L 318.36980903324576 43.21578536199051 L 320.179518196426 43.3071107196904 L 321.87579075577975 43.43817140682498 L 323.4851589234197 43.61889852072874 L 324.8903901977265 43.88878466180633 L 326.1212097479851 44.44062826845013 L 326.64929601884575 45.45824290788387 L 326.9190184062071 46.604182309338626 L 327.73866850745765 47.58101209124447 L 329.2819145961457 48.167841909050914 L 331.2270145499006 48.641800788494216 L 333.27369321000253 49.007212858314105 L 335.0319565845558 49.22914781892401 L 336.19495281403874 49.25322205930954 L 337.32947535526984 49.20622399559361 L 338.44013422344557 49.19748973628234 L 339.67555836135233 49.35136482801781 L 341.06845041345264 49.69093414940191 L 342.3709133967255 50.1343480920334 L 343.5004614612304 50.61839728368025 L 344.44745009127604 51.13013444391549 L 345.2008775046249 51.68574181189823 L 345.7995851185805 52.29312725404821 L 346.3091725360842 52.991193081276144 L 346.77905532728323 54.079144490905165 L 347.03127917779085 55.29533033639279 L 347.1470492227518 56.52349597361387 L 347.17152073040506 57.61464846152968 L 346.9813224402228 58.563327390775854 L 346.7620658331406 59.499392050012204 L 346.75324319381406 60.48711773487471 L 347.40190759109936 61.84347871300208 L 348.7534041284693 63.4621739241841 L 349.96215395835713 65.07329237145707 L 350.2715968503546 66.46610187352444 L 349.5112415480137 67.33517161881728 L 348.3025964481189 68.13082080530866 L 347.38816920838786 68.84319591611919 L 347.4144214039261 69.40912328192212 L 348.1750828709991 69.7625881791877 L 349.24287700460997 70.07338820744913 L 350.24528382345534 70.45763056540117 L 351.1133743920279 71.23640026264364 L 351.8199442339472 72.39538455152856 L 352.32883939508827 73.63179735449654 L 352.70703003611703 74.71503193516192 L 352.82689210221866 75.31536333847536 L 352.8364341647263 75.84709675946853 L 352.9295202320424 76.37207408156483 L 353.35033169288465 77.0150174492444 L 354.3551515253068 77.90027617466943 L 355.6356013515041 78.82154992463647 L 356.92946554587684 79.71729865050355 L 357.97590409192486 80.49433122862955 L 358.8978911891589 81.20503038660387 L 359.8451018863651 81.88743161273683 L 360.9114895813917 82.54460396363363 L 362.27744507822206 83.22712993073898 L 363.7992651184623 83.88201563582 L 365.3664089691029 84.52143745158156 L 366.8821798779405 85.16595063237163 L 368.32665814475655 85.8990749221724 L 369.7639866390931 86.62129698733635 L 371.27267403482017 87.17327596977688 L 372.90304291338424 87.43085266329125 L 374.7246172336567 87.49694593782696 L 376.5702251248762 87.38795922987046 L 378.2069164849242 87.08719946584914 L 379.5950323291334 86.47958180316297 L 380.7658245503912 85.57767628163703 L 381.82179818890296 84.54719690962918 L 382.8797568449141 83.5400189429482 L 383.9400354848239 82.47112140268482 L 384.9421944446062 81.36215773161383 L 385.9216613522884 80.28973158064105 L 386.79349391729465 79.38962852839708 L 387.4590722777228 78.58478932375796 L 388.16420966546866 77.83871542340856 L 389.1127896625642 77.22470185217098 L 390.4480286835403 76.84700593120205 L 392.0891547457259 76.66733851450665 L 393.78805537037476 76.5152242730858 L 395.31074722481327 76.2170980494916 L 396.68538880564546 75.72354469923822 L 397.97259321991686 75.13165332302658 L 399.18402409745164 74.50944786081735 L 400.2723809947091 73.93100883969221 L 401.1627586842127 73.35604346029226 L 402.01957133771697 72.7808683930575 L 402.9940793116139 72.24733609021685 L 404.218351969344 71.76101262532151 L 405.61240864519175 71.30367752263689 L 407.0929189349966 70.91597453554799 L 408.5703624723939 70.6391282402205 L 409.9265300244674 70.54855722275701 L 411.29822262071593 70.55713551380688 L 412.65083451585485 70.53477817527722 L 414.0200727406766 70.35507722240754 L 415.48946909284626 70.03845047293018 L 416.9308735959875 69.6267844855829 L 418.2646017904369 69.13001706534669 L 419.56040428943993 68.43329658251496 L 420.70334220656497 67.51964415083174 L 421.7622738809162 66.5376066990444 L 422.877722665204 65.61673989530009 L 423.9279399981452 64.83024178020827 L 424.97490880817253 64.05835849084802 L 426.1174147435897 63.345426162699034 L 427.3966112420798 62.76214585191937 L 428.77162764670993 62.34996317270236 L 430.23376229662836 61.99317728941054 L 431.65366789511666 61.61083709881605 L 433.0031160940315 61.13767165437633 L 434.343718229465 60.63014248720806 L 435.5985536450335 60.063604810472796 L 436.7012098311556 59.39537819467273 L 437.8583747176025 58.17209894133867 L 438.6675427321426 56.68220719971495 L 439.39587498707783 55.14006577766276 L 440.28522893676336 53.78750770863192 L 441.13963753018146 52.620906036046044 L 442.05655392342646 51.49819223884771 L 443.18544051766037 50.473100469887754 L 444.4887891828 49.709557966650706 L 445.9770894172887 49.14475416058149 L 447.5211903587931 48.62051594982992 L 448.85641168982306 48.05242875801715 L 449.88296346200246 47.36830107588593 L 450.6830508303773 46.631751708026556 L 451.34597348091273 45.876286549648256 L 451.96237385809707 45.13512722409266 L 452.50702295836845 44.40951246021163 L 452.96005286382734 43.68148421922358 L 453.3271826708572 42.95264445182809 L 453.60583995459007 42.231633039344274 L 453.7725502577231 41.52942681902836 L 453.8530300957924 40.81637094280851 L 453.8811665590112 40.060443838757145 L 453.72865242330124 39.04038489710785 L 453.32805980145497 37.8851202330152 L 453.0637363928226 36.74974508059903 L 453.3445010883604 35.8040870242361 L 453.9280510168429 35.16086011269049 L 454.76775624722404 34.571065078027196 L 455.91021813445803 34.06381468897601 L 457.2400412984968 33.70703402335289 L 458.7046731010707 33.48754225283419 L 460.3189075658719 33.314595463333696 L 461.9290936594044 33.14000321390722 L 463.5098182485825 32.960257464467645 L 465.1638240717885 32.80699692013952 L 466.7085088828808 32.6139290173871 L 468.06735239898774 32.27026050844515 L 469.4384191226429 31.21828618498515 L 469.9170219056731 29.803190296829385 L 469.85789453327175 28.33830419398215 L 469.6550588413869 27.163804916237467 L 469.30618656391414 26.1170853472729 L 468.528389340262 25.139907263181193 L 467.04733757211943 24.364693026663254 L 465.50199115473237 24.02364608327778 L 463.8676904796285 23.844617972206528 L 462.10411662686585 23.704473821198015 L 460.3901489333568 23.547277539862442 L 458.7537544959135 23.36700684430393 L 457.1118216846291 23.185263091831327 L 455.46501738470613 23.002176875259135 L 453.81865709965723 22.8183818172832 L 452.1745058338793 22.634082284768354 L 450.5245596371263 22.448437324541914 L 448.86951870584784 22.261579107968604 L 447.2184236509956 22.074560362179618 L 445.56485460761377 21.886673058038042 L 443.90523906219727 21.697572746920496 L 442.2403522288832 21.507396728929173 L 440.582714857233 21.31759499289676 L 438.91808741775714 21.126577616668147 L 437.24717297203745 20.934483135910675 L 435.5807296750301 20.73940164038548 L 433.97287487016365 20.51866237049664 L 432.3454545666638 20.300689971072728 L 430.606489762171 20.130671247355004 L 428.8900639525598 20.053941427946736 L 427.1882337742694 20.04261330841675 L 425.4511155640742 20.057620951653337 L 423.72211866122007 20.066558921625894 L 422.0071788926509 20.059361192278757 L 420.28897362426153 20.051678534957734 L 418.5679675819038 20.043581880463414 L 416.84400591820037 20.035080733447096 L 415.1152843026673 20.026165672042616 L 413.3832087835125 20.016854727082862 L 411.64821435746643 20.007164099129408 L 409.9092039457326 19.99709585122278 L 408.165560713817 19.986647204589993 L 406.4184559680001 19.975839892194674 L 404.66833294757214 19.96469067035207 L 402.91290023815515 19.953189621362256 L 401.15324319171555 19.94134933085725 L 399.390037663832 19.929190898874953 L 397.62198140521593 19.915857242098927 L 395.8183948775122 19.88281115448617 L 394.0051632403222 19.848765628013254 L 392.2436559006777 19.848781568276248 L 390.4948906639777 19.92410345418894 L 388.82517972597543 20.086621540824368 L 387.26253352159415 20.290616600399304 L 385.6970057624007 20.49081677505404 L 384.07808281359235 20.68232179697576 L 382.48176489199574 20.889466041981013 L 380.8479931780752 21.0687517363774 L 379.1225103163311 21.17422540611026 L 377.3213102082644 21.16250638335444 L 375.39343582648235 21.09947218883824 L 373.5351435964333 21.074158921696984 L 371.73697879375163 21.20928652781097 L 370.22010475876465 21.60421387402604 L 368.9563243996523 22.071602122567153 L 367.4936157058373 22.411078205175077 L 366.04972663391743 22.478629327006296 L 364.56350796107984 22.44152244012487 L 363.0059741684543 22.39073807293468 L 361.4618779668611 22.403626688714777 L 359.7153080677939 22.529416381663285 L 358.0272700824064 22.71810956859434 L 356.361341203223 22.922978948445145 L 354.65794183745544 23.111156592745075 L 352.8915252827867 23.33907421277368 L 351.14854609368126 23.551476394390235 L 349.48971038067435 23.664524825377953 L 347.98397016224527 23.595524036905424 L 346.58027731645507 23.366251207396065 L 345.1094093741818 23.097245632264908 L 343.435772356345 22.912367928895982 L 341.5938131637925 22.867621145216077 L 339.6043547984228 22.882394338316363 L 337.6306631802247 22.88582072967008 L 335.7213559942258 22.804070940634897 L 333.78314879658353 22.623431935889432 L 331.8856738469657 22.394614983019068 L 329.9781230822357 22.161208067840438 L 328.06934252608573 21.944381700388032 L 326.1951237653136 21.709644735455708 L 324.26688494641843 21.493787018164866 L 322.2068916570689 21.340557851349157 L 320.282503343014 21.282862449521883 L 318.29590851759485 21.274528431847273 L 316.2914065583187 21.28222750415571 L 314.30037966314137 21.274558965327607 L 312.29851987603433 21.25876742896552 L 310.29404472914143 21.2432982883689 L 308.31075494632415 21.228451786358427 L 306.43397349311766 21.21482033992075 L 304.6409907278656 21.201997558465003 L 302.8546419249451 21.189280445853715 L 301.0333171735558 21.17644295732626 L 299.0568128603489 21.162902582977555 L 297.0333256976158 21.149566110978117 L 294.99413941583725 21.136617632573383 L 292.9620138269483 21.124050654239568 L 290.93180455891877 21.11183197064454 L 288.8982068937229 21.0999929378211 L 286.8618566126568 21.088549724502474 L 284.8223075112084 21.077507634363517 L 282.77887327843325 21.06686715512305 L 280.73261545473946 21.05664618295396 L 278.68418347497766 21.046857696557687 L 276.60200062784287 21.02384181859619 L 274.48287867425694 20.988237905154328 L 272.416072526546 20.977748665980894 L 270.4867481551512 21.03105725272856 L 268.7296413733081 21.174961919339573 L 267.14852108856417 21.372459717193948 L 265.579763226258 21.57948540885357 L 263.8083137854714 21.756623068709878 L 261.7887919142966 21.899352778048947 L 259.80265766951277 22.056205320377803 L 258.1304040541001 22.282025590092086 L 256.20668919247663 22.924639942137837 L 254.98810006943646 23.910260567886255 L 254.80522803417293 24.968963882642154 L 255.69993900972582 25.85436250955774 L 257.4471457204591 26.506149964235426 L 259.8287056807135 27.113246354084886 L 262.43817112761735 27.637639866293522 L 264.77804363266984 27.995547602987774 L 267.2678855384792 28.187645834302877 L 269.6817181465108 28.345841505205627 L 271.22827014445704 28.546119209352796 L 271.2951454960391 28.86601549194015 L 270.1668353115425 29.269947766650656 L 268.4449074130568 29.67798953440174 L 266.6971045314391 30.01076943913752 L 264.9589841930061 30.282084819255633 L 263.0049331920165 30.52352603819024 L 261.07228523690156 30.663826041116 L 259.2526432499452 30.618262451264954 L 257.4262302082034 30.30385713713228 L 255.62523366057337 29.837402875485036 L 253.76899712407385 29.36350004118636 L 251.82379303246688 28.96214890123462 L 249.83704311241718 28.552209333294975 L 247.76823855596584 28.161693314145037 L 245.58109978716638 27.827626076462604 L 243.54800477251155 27.55275158015189 L 241.41028804284633 27.295677330536584 L 239.306906409273 27.139897480641334 L 237.31345237248144 27.170494686693303 L 235.29216304742582 27.42930176827293 L 233.53558593183652 27.84838431616142 L 232.2409227059096 28.350367267893457 L 231.40593096832782 29.15254774245118 L 231.56008014356513 30.350193942347897 L 232.5737539070564 31.623020894232926 L 234.16554497537132 32.7225377314015 L 235.83742032075585 33.417180715677 L 237.883863214773 34.03961054986391 L 240.13709027080833 34.572879462221536 L 242.32504410737334 34.974375943249484 L 244.344949036388 35.26063101203568 L 246.46158699054436 35.481122492664326 L 248.541112305739 35.599525336203975 L 250.4348883608306 35.56654098302362 L 252.23224968651704 35.36404622627123 L 254.05610136322494 35.10696256715873 L 255.96617911720531 34.92050336993957 L 257.9686529700443 34.86735735290855 L 260.03843887379395 34.880988027280445 L 262.107952512222 34.91877967699367 L 264.10206581251487 34.936482843757666 L 266.0781582919221 34.88851880692355 L 268.0338363773279 34.841052645295655 L 269.7671387877048 34.88871861255613 L 271.4549982453348 35.252448894962605 L 272.99916420312354 36.158792228768675 L 273.7685981555579 37.16717614977906 L 273.4739615679804 37.813178030116624 L 272.18830566356195 37.81749629738794 L 270.123623730629 37.53065814159638 L 267.7236677785523 37.2106445800216 L 265.5358104072181 37.095645808655675 L 263.46960665798116 37.17214131337303 L 261.43396205736934 37.35188883570405 L 259.7391304731782 37.619495204191644 L 258.55056054199275 38.010292296021575 L 257.7843659882044 38.62394825663844 L 257.6023087575127 39.29807699291992 L 258.1089498289338 39.860839276663874 L 259.5541933962568 40.17461607600741 L 261.93385451903316 40.35015306202894 L 264.35015612936655 40.50267935191513 L 265.83802746230606 40.716698665107586 L 266.34147815080325 40.91087866656532 L 266.63036434668976 41.120984194372234 L 266.6399460015326 41.3222746316653 L 266.13836265791736 41.531340787769096 L 264.5660432484049 41.76154657728004 L 262.41786824923776 41.95482728542269 L 260.24720286125176 42.09636612805272 L 258.41227506087864 42.160862199077954 L 256.57014494339535 42.15574042383522 L 254.72080674297533 42.12241581484295 L 252.9186483092084 42.10173035192983 L 251.296730751427 42.09875809468062 L 249.7133237143225 42.096003280583396 L 248.0905784598703 42.092724436685735 L 246.23209742306884 42.09213472579205 L 244.00126174869058 42.1173160729576 L 241.69512301779153 42.13815142637634 L 239.4390114194598 42.10999452437735 L 237.33435013173832 41.99349191012931 L 235.2988046082481 41.8015625420033 L 233.28007962754887 41.576616570919946 L 231.2485282678393 41.3621060826505 L 229.20568788096142 41.14738855065284 L 227.1498491268157 40.92239905696723 L 225.10751374437885 40.734575540090866 L 223.2053098560844 40.6307024738211 L 221.56269124158337 40.590593933561394 L 219.95446245038872 40.592777386144064 L 218.34285730598017 40.63990628202131 L 216.5775714977484 40.77007383626684 L 214.73834999370638 41.02731431878972 L 212.92030285676435 41.28760882872685 L 211.1226155838162 41.417946823684005 L 209.32945804493005 41.30686927079255 L 207.51158799567312 41.0416305086994 L 205.66343956451638 40.79550740067034 L 203.8112523257969 40.73872489579568 L 202.00160848015256 40.908943484248574 L 200.2215345402367 41.18160596927222 L 198.41968956152883 41.426367474608085 L 196.50528520439292 41.5283579770243 L 194.44353272691947 41.51566569244668 L 192.36749785904252 41.484032497498035 L 190.4333670907577 41.526746921818024 L 188.91928823280978 41.69354329206089 L 187.59757849108576 41.93541993547506 L 186.28141675878666 42.17190093088538 L 184.75910278416794 42.32501622925847 L 182.8437256758426 42.35513424336246 L 180.7876152387139 42.323651234239094 L 178.73808554895862 42.32385569575846 L 176.83056572569458 42.430216553165124 L 175.0024540527155 42.60395722385258 L 173.24589150379742 42.828231164441156 L 171.57423318957314 43.09618642116722 L 169.8989061999379 43.42949495324978 L 168.31309550743921 43.82020627154448 L 166.82614713865155 44.253482096764074 L 165.40364166044625 44.72664966899159 L 163.99883894857933 45.298997704710175 L 162.7123911807529 45.916129810137306 L 161.45779957967662 46.542634745849575 L 160.15084900111825 47.147591221293595 L 158.79549308060368 47.73343220597567 L 157.4611148338709 48.32476289592217 L 156.21273237558233 48.94774552562361 L 154.97457578782186 49.66381383967351 L 153.78182249774014 50.42099059498457 L 152.72837441940237 51.23012868090757 L 151.8638176272263 52.14365756772163 L 151.15284628230393 53.49869949108815 L 150.7274180127534 54.992451696622844 L 150.43670499862338 56.40711928839208 L 150.22738735229464 57.40582405928707 L 150.2967787977724 58.07983171321832 L 150.32628339265764 58.68077996292298 L 149.9677054131032 59.17506746846719 L 148.8971645273098 59.528344971924696 L 147.2306878225131 59.73366497672943 L 145.3169422800055 59.87555313550782 L 143.5010525352593 60.040835249087685 L 141.82955215546716 60.24148527827167 L 140.16343533829385 60.4411616361319 L 138.50310468156724 60.63975704282695 L 136.8398879179395 60.8321496980058 L 135.12172697539566 60.98117496323334 L 133.41961161164946 61.13909266888311 L 131.8358626498134 61.379496088026286 L 130.3106907916211 61.78008855471732 L 128.78934405635087 62.309316985934515 L 127.54985440510008 62.92744305667708 L 126.83957656322207 63.604570802648695 L 126.84158057371047 64.48471992251284 L 127.48727214990622 65.47112359515599 L 128.47982276883982 66.4779926306033 L 129.5867500661913 67.4498913547856 L 130.9486950998977 68.47095631046591 L 132.53651850105857 69.46979209444713 L 134.29408867477358 70.37859543100782 L 136.1780753649118 71.10819848100829 L 138.29335120332772 71.67455077621881 L 140.49143340055164 72.19960166637638 L 142.56183673326754 72.79346039204124 L 144.4285129945512 73.51112340631438 L 146.1800124044147 74.28820406711394 L 147.86219297638073 75.08765952907456 L 149.5259010867589 75.86846954182776 L 151.32890593067833 76.57677828254236 L 153.08621965558405 77.2914393860945 L 154.46109370384616 78.10697042169221 L 155.21008463694872 79.25166400604691 L 155.23982708470297 80.76394850809035 L 154.76220993881185 82.36821663757479 L 154.05903009274138 83.86491186691397 L 153.32449750299725 85.128911715725 L 152.41253265586647 86.36590850634447 L 151.30478077078035 87.42407040399975 L 150.04982006503283 88.11376497329479 L 148.85571343039314 88.45563174055481 L 147.53387502247423 88.65034471850502 L 146.2049813413489 88.67127195742574 L 144.71013632591175 88.41391588851698 L 142.68445325737602 87.67641909180836 L 140.84188544362112 86.74555600453019 L 139.92782710506435 85.937581335991 L 140.43820568156505 85.47897326078349 L 141.89927046887846 85.1445453203183 L 143.73684143517966 84.85377429462986 L 145.38134659429426 84.53843188749134 L 147.08781059327757 84.23929958621122 L 148.84886938642154 83.94775605912146 L 150.15437218748377 83.57713822932507 L 150.47215289003444 82.98101407285618 L 149.42898838787474 82.08621028101102 L 147.60204361341255 81.06392373770888 L 145.754185857713 80.04233005584506 L 144.36498957965478 79.08066516973739 L 143.0240385419483 78.10704984778921 L 141.65088949933315 77.14802050940101 L 140.1964135966361 76.23965224450616 L 138.6254836200188 75.24791769765409 L 136.94896001892883 74.23983421318083 L 135.39072997859267 73.57009993147909 L 134.22705220503622 73.58985693919675 L 133.61726262982083 74.38960302714632 L 133.2018296749581 75.56391773453167 L 132.56424711543633 76.6612757271491 L 131.45766715478427 77.3516221200661 L 130.05135797226865 77.88658028311742 L 128.53786013221873 78.37205902735546 L 127.11951675964156 78.87813988639378 L 125.82544978265811 79.38027722176818 L 124.54987189058515 79.8762819002433 L 123.39017836035676 80.40585984646408 L 122.4555492455816 81.02196942961675 L 121.88308337411662 81.84923216135296 L 121.42434522026615 82.69282987849422 L 120.75303445843124 83.28587106028749 L 119.4930689957851 83.39642696026793 L 117.70362904747333 83.04949695783627 L 115.69121903890947 82.47388470909635 L 113.74917503028625 81.90413541859257 L 111.88498151999747 81.38071347628497 L 110.02167304635049 80.81046881505867 L 108.19445103082086 80.19682695198094 L 106.43315655117796 79.53400277388569 L 104.77491020499421 78.7577621701604 L 103.15720593635531 77.9402646899562 L 101.47056584767 77.19061330925416 L 99.72776366893234 76.61596730587802 L 97.9576875328383 76.13888332366417 L 96.13638208460884 75.74474203223264 L 94.29546731323586 75.45098892316935 L 92.54584214497825 75.28246994260711 L 90.79099828049364 75.21011103226296 L 89.05493452378121 75.20431647794754 L 87.38292485609598 75.23552483247504 L 85.7829389691153 75.28123818449072 L 84.22110009147872 75.37220021669678 L 82.7554055922407 75.54832960890627 L 81.4372897740237 75.85552362727509 L 80.2880812063485 76.30602838922559 L 79.23133743925624 76.82387285781431 L 78.16995030723359 77.32982501235864 L 76.9893589585827 77.7584169088772 L 75.73941971315155 78.14912890110072 L 74.6162145104263 78.5936959149462 L 73.7895963595133 79.21574442580967 L 73.4435520884818 80.27421876941183 L 73.49512845581312 81.51142552222062 L 73.51245602214331 82.72970501035704 L 73.17097676807438 83.6952544413416 L 72.61448847015448 84.48922686452468 L 72.00065154079138 85.23721672821901 L 71.47678916169195 85.9658830107469 L 71.20986918012282 86.62346286097144 L 71.09618763374823 87.25543665350882 L 70.92429594133876 87.86151765065587 L 70.48844928624855 88.43201079188333 L 69.61741812187599 89.01548501306587 L 68.50331871803141 89.55384873800047 L 67.31225631253118 90.04886931322325 L 66.21007036296342 90.48727439322435 L 65.13699103122785 90.85753183335221 L 64.04464036477174 91.19609683305504 L 62.95389131262673 91.52889712354374 L 61.886191929363186 91.88143547928514 L 60.83726749375762 92.24602252368378 L 59.77132001809409 92.58620883183279 L 58.64915481669131 92.86594171457659 L 57.38837313483268 93.03151069176815 L 56.05679477991438 93.13019658529737 L 54.779309737205594 93.27080303313987 L 53.6413196688056 93.55773041143546 L 52.41379542669399 94.00893229995805 L 51.35870894675042 94.52452508856193 L 50.8538018171367 94.99503721441573 L 51.175003745313795 95.33211340884623 L 52.12947368947351 95.6181936512427 L 53.38738455303229 95.85861727950576 L 54.62182062579598 96.03717938530536 L 56.01080166936635 96.15078374456694 L 57.50372114511243 96.17972469321838 L 59.00419328484424 96.14918205138802 L 60.40051585955182 96.08247910739549 L 61.707200600335696 95.97771336762776 L 62.98271927820127 95.82638581922615 L 64.21247724291916 95.62604728600174 L 65.3660248365713 95.37013455152922 L 66.4488977412077 95.0476383074475 L 67.50411765065061 94.68973065694018 L 68.56811308328459 94.33302381905031 L 69.61695364333089 93.94761345051617 L 70.64671952578176 93.5282939229467 L 71.73735409150686 93.17702968049214 L 72.98622212428194 93.00115061992695 L 74.49890802510808 93.1104621912178 L 76.09736874140114 93.35161085934527 L 77.61556765560924 93.49596450449665 L 78.91006009919019 93.36416188219927 L 80.09063871644655 93.0546503121153 L 81.18087477234972 92.6273648635493 L 82.15495076226804 92.12762241710331 L 82.9969575262228 91.4903065446348 L 83.65800679903828 90.71938854961549 L 84.29338921808247 89.92051491195484 L 85.05553440039284 89.20155113520335 L 85.87121634720829 88.54702775374182 L 86.7505370335919 87.92120171387133 L 87.74643249541485 87.37025759732268 L 88.88675844893501 86.95168191518223 L 90.17830570309218 86.66997330855347 L 91.55799437974079 86.45160066706288 L 92.93442939161484 86.22527754072664 L 94.24616307492902 85.92073861386089 L 95.54293801725662 85.57024699855675 L 96.8748688497044 85.28278362159546 L 98.29343800562017 85.1689201186369 L 99.84707070608623 85.26621269785848 L 101.44846119493525 85.51495593246364 L 103.06491307404673 85.85294807717531 L 104.78192664817709 86.270883311398 L 106.63328549678428 86.8792843381133 L 108.46699222427767 87.54320594342374 L 110.2532098363707 88.1125404400702 L 111.78423182206996 88.42044185353357 L 113.24849910194703 88.58389975977668 L 114.6787843477919 88.7594955847116 L 116.05453796654224 89.09465782945958 L 117.46820203015334 89.70654612936045 L 118.77798900499701 90.46600330934663 L 120.04632037628693 91.28427950764694 L 121.37198715559063 92.11057488989863 L 122.75409685317578 92.99926598047868 L 124.11035458496187 93.91485201013408 L 125.4239330010683 94.83350762371235 L 126.68725295620276 95.72979742103574 L 127.9390385967798 96.62797527407528 L 129.1118447955594 97.51909467559025 L 130.12297770521388 98.38024683087575 L 130.77716398402472 99.090217189382 L 131.31273311546593 99.78387221260499 L 131.89169603188975 100.46096396566145 L 132.69943520957423 101.14950026179405 L 133.7724730996547 101.86741883388365 L 134.9644945383554 102.57042321259587 L 136.19626324448868 103.2651347952532 L 137.4685461174114 103.96839736661657 L 138.82267493929783 104.65840475815546 L 140.18070321792462 105.35648970370218 L 141.47224160936415 106.09540078839714 L 142.69472865183147 106.91786618530305 L 143.85207874021452 107.78090163834563 L 144.9870048241461 108.6535452966368 L 146.1385467318147 109.51407949542403 L 147.2675048630055 110.4220304635016 L 148.39849855751646 111.31804668692475 L 149.59346566163126 112.1046150988292 L 150.81369560005874 112.66984576024507 L 152.05319137009303 113.0832858827234 L 153.3618259133293 113.41765989499221 L 154.74181004839753 113.71540018120317 L 156.53293039939453 114.11107153771286 L 158.52739748528367 114.51984045042076 L 160.39703935691867 114.72727690731149 L 161.85171261318013 114.5166433446299 L 163.03419457148587 113.80250066599245 L 163.9734000387486 112.7769182941254 L 164.49420582963788 111.67876127297791 L 164.37030273856618 110.68151354865067 L 163.48437593370673 109.67313534704628 L 162.2093327254172 108.65226251829826 L 160.9739017525535 107.62864944217107 L 159.9695451251235 106.5953953620145 L 158.97189928442327 105.54828613511845 L 157.9641233167166 104.51133019859104 L 156.93512517932427 103.51738126373614 L 155.6147601618852 102.49950868594892 L 154.2488736890424 101.49886711646057 L 153.45419942455686 100.710788360538 L 153.81095738639536 100.30373255698848 L 155.24202574502155 100.14823075732076 L 157.09368062344353 100.2187845850069 L 158.66097924351632 100.53611995615768 L 159.60512942346736 101.40576561076811 L 159.93958282931686 102.8465468249082 L 160.16182292996547 104.44711385161426 L 160.79112739203646 105.81950809903167 L 161.8826491958937 106.88499381305448 L 163.17899694870212 107.87938496926493 L 164.44642804509797 108.88175604439704 L 165.46027959630953 109.98651282031804 L 166.16694239345637 111.25625202065919 L 166.8464899861826 112.5063425788088 L 167.81281294608397 113.53855579281333 L 169.29390732715234 114.20262961091674 L 171.17702927489873 114.60983171979584 L 173.19820113630848 114.89325216226793 L 175.06511773448403 115.16965502933455 L 176.60437475990005 115.44907751209453 L 178.1075661239989 115.70218936781859 L 179.55145261198666 115.87413069772724 L 180.8718402938942 115.92156702980289 L 182.19950139065094 115.91093463722802 L 183.43479604898852 115.81343376066852 L 184.27952948148325 115.56316787980658 L 184.4080080439717 114.96563345252402 L 183.64401784159236 113.98715807654247 L 182.4630894471232 112.85157864475768 L 181.41427425437658 111.7623262482849 L 180.6550763735898 110.73733430396652 L 179.91779082682208 109.69888689462124 L 179.0915756153275 108.68211055480097 L 178.06098371228578 107.71823712005653 L 176.81133259154913 106.81289842635779 L 175.41957273218537 105.9490283871579 L 173.94862436231983 105.09535196843456 L 172.35529640626407 104.20121816673559 L 170.58921213951945 103.30688048149918 L 168.7932903671028 102.41482836961296 L 167.09822334283638 101.50319525327822 L 165.59439754059386 100.63295102287196 L 164.1363743743231 99.75470306955422 L 162.81821818297385 98.84021411428056 L 161.73187003258224 97.8457496591558 L 160.76756707866988 96.52126704711317 L 159.9958687028418 95.16869339577828 L 159.62220141488663 94.2921773569654 L 159.87249316240357 94.37542675680832 L 160.76226728767764 95.38377934567067 L 161.9909708594336 96.79999162583995 L 163.2708840828287 98.09156485023232 L 164.5055153656756 99.0626521057824 L 165.83722654148332 99.98969244656767 L 167.25842482179587 100.86841069622916 L 168.77035355940333 101.69308118655731 L 170.44092841029774 102.43937550457844 L 172.2025637773266 103.1361496415736 L 173.96705797630688 103.85024611219605 L 175.71784211977172 104.65850995077287 L 177.50293291831616 105.53683650124945 L 179.24754759503446 106.44316290200345 L 180.90328428768845 107.35779650201857 L 182.32383883245635 108.25604587636981 L 183.6035606929634 109.18258893121663 L 184.9106611033061 110.06075066791796 L 186.41076685157242 110.81487108645435 L 188.19711658853325 111.46409347010344 L 190.12534606246868 112.01743421052979 L 192.09195314818666 112.47914577122005 L 193.9794811939941 112.83182089270362 L 195.8445160014232 113.03642469911703 L 197.72781286270111 113.18402163899715 L 199.60754282123492 113.37571296956912 L 201.500418525391 113.66047521559405 L 203.39338656518302 113.98020673734885 L 205.2715786834617 114.35722747587782 L 207.13930078021696 114.82114697827426 L 209.11598227108234 115.40966228927113 L 211.06648527949767 116.08220811367347 L 212.910414282332 116.81944454579897 L 214.53127683989734 117.5811282345047 L 215.93383344295347 118.36349782332616 L 217.23081834334548 119.1879905825233 L 218.46908166348547 120.04405119966187 L 219.70260446105658 120.9442340367404 L 220.89759097438738 121.8869317468958 L 222.01679024002584 122.85032578384161 L 223.02813418155998 123.81353347510512 L 223.82609422036583 124.89735063480646 L 224.52040676735766 126.04209443918963 L 225.2432440005849 126.89686826442959 L 226.06539001030157 127.11850679999587 L 226.9024110833469 126.68773691160257 L 227.8220199755847 126.01658230534599 L 228.8265538776515 125.53580388838556 L 230.10602128039667 125.65607728029896 L 231.59465917742114 126.34245753952997 L 233.12836351246187 127.176256911856 L 234.63575082563875 127.73121210360053 L 235.954616811233 127.92799953769526 L 237.3013410252147 128.00563654435803 L 238.59204740381733 127.91567156493852 L 239.79633931161044 127.56444882172832 L 240.85843435166376 126.67650149145052 L 241.8382519208177 125.55286926257267 L 242.99318636668318 124.60596721328606 L 244.6091920827716 124.12238206208686 L 246.70240463297205 123.88539187512225 L 248.77337855720742 123.93185351389167 L 250.2939184788207 124.32031783449087 L 250.89148941868234 125.20631294010947 L 250.8682032980108 126.50246429726775 L 250.76695216646849 127.88211557367241 L 251.07522061469845 129.01646154279103 L 251.69562745414848 129.90520670632012 L 252.45446632998835 130.73748753011293 L 253.25798693448093 131.56730454546903 L 254.13299621124557 132.51189944077376 L 255.22875909187854 133.6038010430986 L 256.2325543828863 134.6347248897116 L 256.82818036812245 135.41042434121948 L 256.8686896478521 135.63070043854927 L 256.8176664492771 135.78916542286797 L 256.7870642933432 135.91022246056343 L 256.83902977233595 135.96985239412297 Z" data-length="5.103947760790037" />
<path d="M 159.6115815662166 125.52371007748883 L 160.45462265019796 125.52380325543491 L 161.2977243385319 125.5238564788192 L 162.14085372828498 125.5238699792564 L 162.98397790907546 125.52384381498716 L 163.82840883292775 125.52535273606536 L 164.53312273496226 125.19715330455158 L 164.8203924697283 124.13758703177623 L 165.20544956674937 123.15332500205743 L 165.16322584591273 122.10119179350862 L 165.16313467540783 121.2590882979931 L 165.2096819284797 120.38958039259836 L 164.40048318540764 119.93158244494168 L 163.21954090633696 119.97614511252833 L 162.38037185792686 119.97609257567025 L 161.5249890955462 119.96602099168794 L 160.98559187966356 120.26988537731562 L 160.5228665400529 120.72743593831449 L 160.3442868545596 120.03453357141709 L 159.57843634763947 120.00801726772042 L 159.6113008754348 120.87747473352792 L 159.61120070850592 121.72004147634827 L 159.6111687957047 122.56267806588136 L 159.6112039868143 123.40531450535929 L 159.61130515542416 124.24787856630763 L 159.57162074988327 125.12351750601022 L 159.6115815662166 125.52371007748883 Z" data-length="0.12757285200737206" />
<path d="M 154.75365218777097 122.05655095143527 L 155.66255199572404 122.05657047460302 L 156.57147995439794 122.05657369492471 L 157.48039574871797 122.05656065880886 L 158.26719965595228 121.92694590024685 L 158.6040789989576 121.37445650870576 L 159.02729092447876 120.10824240213654 L 157.39889378029483 119.97616134318277 L 156.50382986355933 119.97609448872652 L 155.59489921633022 119.97609853042798 L 154.6833288515107 119.97391220176866 L 153.94759142145026 120.24157076207055 L 154.58468894235781 120.64681665035603 L 154.75329996014 121.38188182387229 L 154.75365218777097 122.05655095143527 Z" data-length="0.06871549074409078" />
<path d="M 471.49305941157644 110.18534121684337 L 472.53238880195727 110.2278107168755 L 473.88221936611257 110.11964247784975 L 475.3720686889787 109.93542657698802 L 476.8263265678814 109.74731833180863 L 478.02242520840696 109.6127171855952 L 479.0578808856452 109.47183869521768 L 480.0662102964154 109.32553931121872 L 481.0908456537291 109.19756849032812 L 482.1799805207065 109.112079852861 L 483.4969384343042 109.11237928180331 L 484.878657764337 109.18536621605676 L 486.273882350274 109.25889125603454 L 487.63485275155836 109.25980155917227 L 488.92751157426846 109.14273155783796 L 490.23994899307337 108.97784758453012 L 491.5246833128748 108.74423539733714 L 492.6991721636329 108.40553739678292 L 493.69134303874284 107.9156659287625 L 494.4153397159583 107.00054864669596 L 494.81306084432833 105.80237577738163 L 495.17947972844496 104.5746693450694 L 495.81847745639044 103.57476300286403 L 496.8713996007042 103.0557856507174 L 498.1864420147758 102.86140104946615 L 499.66425569281796 102.81428168495961 L 501.1651063684142 102.78352746899307 L 502.5528836492299 102.63785151435172 L 503.842451299023 102.41187672552006 L 505.1228140589529 102.15749553722439 L 506.3595981172745 101.85543505218726 L 507.51878245137397 101.48586605780122 L 508.57004088371417 101.01228774862088 L 509.4931629422832 100.41390035865184 L 510.35480184444003 99.75387423210101 L 511.23364789824853 99.09920565293368 L 512.2023761958055 98.51961971215428 L 513.2402613795056 98.02750482085702 L 514.3288180419129 97.57182030788655 L 515.4413992503315 97.13227745732436 L 516.5517178625986 96.68819439222403 L 517.6327721324146 96.22180459741254 L 518.6936324448053 95.73661757405698 L 519.7616714981399 95.25398913082871 L 520.8621905555025 94.79683295206674 L 522.0175205701016 94.38597559373729 L 523.2329482365712 93.94799131981263 L 524.4974351936817 93.51296228929822 L 525.7787085366341 93.18178681566347 L 527.0386241054896 93.05500798635778 L 528.3504884269413 93.24898332815906 L 529.6712777776934 93.77006329043331 L 530.9377190141357 94.48989470234604 L 532.1316165504098 95.27876771330851 L 533.2419253046495 96.01470144726397 L 534.2322647996702 96.75889555661387 L 535.1326171272376 97.54111227457993 L 536.009699464103 98.33507053726004 L 536.9290878044912 99.11528651256694 L 537.9337199048284 99.9373159979838 L 538.9463050829497 100.85706125736884 L 539.9937482803585 101.73281990449276 L 541.1203151358251 102.4219807640875 L 542.3463133355972 102.77938715321727 L 543.638048405849 102.77239187970103 L 545.0382506021926 102.55235755442855 L 546.5010316506015 102.26238301205358 L 547.972691993883 102.04478847139026 L 549.5122836488571 102.00769451905178 L 551.152055296625 102.09074749881353 L 552.7752796441422 102.17582397932466 L 554.2803621151947 102.14255361888863 L 555.5596751326252 101.87929766191078 L 556.619209178462 101.4065663090849 L 557.5612095276995 100.78760958943487 L 558.4273477197867 100.08288587316689 L 559.2576680018851 99.35354084258424 L 560.1096483324102 98.52122148807584 L 560.8653495754708 97.57231650968887 L 561.5873338966104 96.58982500292917 L 562.359264062713 95.64632230197618 L 563.2197325585776 94.84105191119095 L 564.0877991772849 94.16836412579984 L 565.0063909522215 93.5385665712153 L 565.9714646875577 92.94379275327519 L 566.9790953850619 92.37612129648382 L 568.0036113802814 91.85972392031802 L 569.0786730801693 91.3870166592886 L 570.1835683123826 90.93600659505884 L 571.2919810377491 90.48698402289926 L 572.3811633752215 90.02526350243343 L 573.4822467334012 89.574388390763 L 574.5870017385527 89.125039159736 L 575.6673706265148 88.65858467677583 L 576.6956970205911 88.15604402687208 L 577.6930208266081 87.59236746791424 L 578.6505560249647 86.99185937818955 L 579.5658761017672 86.3614586656357 L 580.4393775802603 85.70625071907409 L 581.289998971438 85.01765803963453 L 582.1253362177467 84.29823808709642 L 582.9139209207273 83.5522501256922 L 583.6494838306334 82.75865598073291 L 584.3261060490842 81.89638296550898 L 585.0100137379634 80.61795857158205 L 585.5149341354279 79.13473006782394 L 585.996307652727 77.62065860557713 L 586.6292779993838 76.2353461333974 L 587.4510132111913 75.25716867385849 L 588.3702968556364 74.62951519390582 L 589.3819422501779 74.07858802697555 L 590.3418406592921 73.51394080032468 L 591.1064920456888 72.84384984564755 L 591.5530952472678 71.60208684167206 L 591.5463131822127 70.049666484265 L 591.5010996854007 68.56828082563555 L 591.8695451159928 67.53457549624962 L 592.8944740041971 67.29062962042119 L 594.246598883482 67.62524218612582 L 595.8243273588407 68.24402237839867 L 597.4769004273624 68.91075433836097 L 599.0779886676221 69.3875622319082 L 600.5238101073212 69.64560682282332 L 602.0159067800473 69.85202169241798 L 603.5151429067587 69.9966249615245 L 604.9839234152237 70.06873634708495 L 606.3813800597646 70.06602784648368 L 607.819124071755 70.01706651168594 L 609.236881654199 69.90241578496932 L 610.5139512150141 69.69413329338639 L 611.542841144299 69.35686496138871 L 612.5180985774068 68.6478971726689 L 613.211977394285 67.68483507411062 L 613.5554007914925 66.62976716315679 L 613.4672759694008 65.64472398749123 L 612.8513277213267 64.87617533499426 L 611.6197626554429 64.21782423495183 L 609.981006432888 63.61525525999817 L 608.1946912185367 63.04902526465771 L 606.5387785278726 62.50022615811339 L 605.0847744323312 62.0118172881341 L 603.6009949197577 61.552343184422995 L 602.1005714738284 61.10606707852565 L 600.595602283146 60.6570857243826 L 599.1010193765998 60.19669395245724 L 597.6053082684232 59.734826030047905 L 596.102765374616 59.271806467692734 L 594.5939678713818 58.80783418468782 L 593.0814746214685 58.34339733175239 L 591.587574991383 57.868202257760096 L 590.0933022981992 57.38474219338071 L 588.5802850888617 56.912848870401646 L 587.0315493013395 56.47254432547103 L 585.5212621215654 56.09510669968228 L 584.0317397419041 55.75214317138343 L 582.5177686981389 55.434830056221585 L 580.9769862561699 55.14800542723531 L 579.4246384967806 54.89888345241608 L 577.9341300876075 54.69195717075381 L 576.4244495654534 54.51235903234593 L 574.8982845640355 54.36378606610571 L 573.3588074117455 54.24992053635813 L 571.8382125590412 54.18052810253786 L 570.3228722083917 54.16035727903834 L 568.8039024924549 54.168533207963584 L 567.2839686773906 54.18347112998557 L 565.7619059369052 54.18289551347723 L 564.2069782499386 54.140830718140585 L 562.6359704321018 54.08597866260918 L 561.0910421206298 54.06366578401097 L 559.6194247605873 54.118765852194095 L 558.2503476811307 54.285597155984334 L 556.9736454028332 54.542312871601894 L 555.7730690672049 54.86012995803936 L 554.6272434608386 55.21152471825642 L 553.4944964896362 55.57812623804297 L 552.3702933369034 56.000557497110556 L 551.3138194866085 56.457930848290914 L 550.2864218658257 56.92998210573895 L 549.2491347545691 57.39669842384154 L 548.1876481344473 57.85882436009706 L 547.1453486050312 58.33551063424072 L 546.0940394229381 58.806410153692646 L 544.9998147053848 59.25052784002405 L 543.8447401039829 59.64234051777074 L 542.6458256787054 59.97132655176023 L 541.391025419682 60.26897994990357 L 540.1133092894202 60.553747092344146 L 538.8464754593624 60.84376804838879 L 537.5858914170249 61.14137793979424 L 536.3055464813272 61.427226785371516 L 535.034858520028 61.71897751171621 L 533.804001302734 62.03567451341243 L 532.6194700301155 62.40234554292784 L 531.4505368284734 62.82425964588098 L 530.3365714494493 63.2780623270342 L 529.2735361525846 63.75929698652153 L 528.257099003497 64.26354868890047 L 527.2534165220935 64.84075680399309 L 526.3379233393078 65.4764683545774 L 525.4530921745087 66.12650920734345 L 524.5275086250138 66.75294001944773 L 523.5094375904648 67.30560599230031 L 522.3767828928416 67.75185733666768 L 521.1823216768115 68.16471985796946 L 520.0380082375614 68.60812484913146 L 519.0568641743904 69.14494288240726 L 518.1723986540145 70.04301925267289 L 517.5907535851171 71.15526829516585 L 517.1311742915221 72.34303813087264 L 516.5857645765425 73.49283965496683 L 515.8238142814608 74.46810356717444 L 515.0136318034771 75.34239089879065 L 514.1294548841674 76.18223030500963 L 513.1419492579727 76.9451627571296 L 512.0204130084865 77.58910266133694 L 510.84757464041576 77.99193345058346 L 509.50409925210295 78.25562567354226 L 508.1321566654585 78.49121745607539 L 506.89385897907056 78.80087078945536 L 505.8871756999219 79.30597912469754 L 505.06924906721383 80.006895616768 L 504.44291245200037 80.81009228949713 L 503.9545464452765 81.6638743197046 L 503.5507839782306 82.51699314878249 L 503.2432517847566 83.41839089929643 L 503.08778345402703 84.35507747879905 L 503.0085284366881 85.30814150226422 L 502.9313046277966 86.26119892694855 L 502.8098891116746 87.23989862480961 L 502.73942997306807 88.42485822535994 L 502.6704809382423 89.61514775372625 L 502.5239770647043 90.54459132653318 L 502.2214911159104 90.9479216173002 L 501.8210166321595 90.80894261792352 L 501.2982064959548 90.39166678240505 L 500.7498556733735 89.80576809554474 L 500.2779965279459 89.16020484530142 L 499.97695321080005 88.31396625973171 L 500.14996874022023 86.95472344703813 L 500.5269994507768 85.4549906528957 L 500.6471124453655 84.11726092964997 L 500.02870410073496 83.24824089565863 L 498.8325102360071 82.9482244753176 L 497.2120375383018 82.86674244524447 L 495.4348594620802 82.95198700570204 L 493.76548394363806 83.14781949579029 L 492.43696800285477 83.42114448940573 L 491.33109617606 83.85619854088158 L 490.32153561635977 84.38673736560878 L 489.31825521868393 84.92133250589389 L 488.2303222828743 85.36957491627615 L 487.0392171563821 85.70427017218155 L 485.78950054942794 85.98672695179044 L 484.53134583032437 86.2613816602981 L 483.3165079411206 86.57188878686581 L 482.1702611075757 86.9538605202162 L 481.063513031761 87.37854216577341 L 480.00027723830925 87.83511952749822 L 478.9809765997483 88.32056963332165 L 478.0007614399308 88.83411699219076 L 476.9587972635989 89.38482102306683 L 475.924404636585 89.95893125385253 L 475.0028824841836 90.57130984982328 L 474.29679244597367 91.23587053979789 L 473.91935851092984 92.01520624887979 L 473.9610984677217 92.91282284431064 L 474.18964109129365 93.86197499814668 L 474.3439838387326 94.81581050861202 L 474.1731486619104 95.73261432708709 L 473.6266049397696 96.62796921454655 L 472.8742233801472 97.49970028089534 L 472.042092135467 98.37780504837349 L 471.2524112084777 99.2912696147161 L 470.4704843205282 100.35186901281563 L 469.5592215921037 101.5207166389994 L 468.7119563879764 102.72166750662987 L 468.1087827398182 103.91940304775909 L 467.91851987231183 105.06795410431785 L 468.14993736932155 106.22012469218048 L 468.6518449773309 107.40370159390088 L 469.2926136749619 108.48185225294161 L 469.94919197694304 109.31793759634591 L 470.32016036617085 109.66909321437073 L 470.5769620266067 109.86182648156077 L 470.851659195144 110.00855807977013 L 471.17843739073453 110.11860572606456 L 471.49305941157644 110.18534121684337 Z" data-length="1.433918667335526" />
<path d="M 57.59888961174708 89.46288745858709 L 58.70657808158594 89.49082141281734 L 59.02269589155074 88.75539502047545 L 60.153349759416685 88.79971991437063 L 60.45934370669583 88.05704198160619 L 61.02113910946956 87.55675661384943 L 61.88987006739729 87.16752236728676 L 61.85572469331986 85.40410533756621 L 60.135202072956886 85.30217110181403 L 59.08420580429174 85.30206406812056 L 58.01554400217279 85.30204468793555 L 56.94686724980298 85.3020470389241 L 56.20520925396385 85.63046634655309 L 55.5033224734824 85.99542468323455 L 54.83993004618376 86.39542762343068 L 54.088039310271554 86.72889236451923 L 53.66699762258804 87.36914293224572 L 53.52469047445428 88.10085402835675 L 54.62818376586912 88.07598963147619 L 55.56334328767858 88.21554635909142 L 56.63410232873511 88.78070494212751 L 57.63931430943303 88.97565269362524 L 57.59888961174708 89.46288745858709 Z" data-length="0.10714562170734089" />
<path d="M 437.891933369481 78.36619889131075 L 439.21267820418296 78.54417893861752 L 440.99519536428147 78.55466497318635 L 442.9504766755018 78.47328544033371 L 444.78378964735856 78.37050034193241 L 446.3772924133313 78.2640019176504 L 447.952610757905 78.11551610130041 L 449.4970118772166 77.92423101847419 L 450.99562526095076 77.68922386323965 L 452.4169892036169 77.39852799580414 L 453.79151666318904 77.05159317288971 L 455.1486675033004 76.68007506737214 L 456.51513074308525 76.31625964007564 L 457.94173383906895 76.00531692524267 L 459.4185908837895 75.7264261255033 L 460.82881380883515 75.40361472392715 L 462.057853129024 74.9592840285081 L 463.384728537296 74.14102559588478 L 464.63286723263843 73.0592628551954 L 465.50073225642103 71.9078508568911 L 465.6858773690932 70.86481168049458 L 464.9787006084699 70.02201746368321 L 463.5329425461354 69.21423069392772 L 461.66152707631255 68.51890249679026 L 459.70702788228624 68.022791272778 L 458.043715574277 67.82063703358834 L 456.320863849337 67.81446652295091 L 454.55385892514596 67.89542552603942 L 452.7981101668255 67.96146115959121 L 451.073969833022 67.96363814327293 L 449.3503169274889 67.96347202389259 L 447.6264785574025 67.96340520391537 L 445.9029138474784 67.9634368904283 L 444.1740146353398 67.95239668653359 L 442.4347679521631 67.92360930930784 L 440.70253566304496 67.9098180130743 L 438.99863494779754 67.94462118532256 L 437.3103603774111 68.01703433291242 L 435.54825302167956 68.08665112205681 L 433.90719252988816 68.23319083390982 L 432.6102798049923 68.5375697536088 L 431.6856939736895 69.27885200415263 L 431.39705996548764 70.48416837335354 L 431.6238245543999 71.86564645666209 L 432.15053408191216 73.17080954188057 L 432.87214723739766 74.17992756642033 L 433.96589695765147 75.10818640266591 L 435.18113069439954 75.97596329331044 L 436.235736944114 76.75068973496906 L 436.7513046620011 77.25900393208154 L 436.99958331687645 77.6565951382084 L 437.25022462474067 78.00829395472803 L 437.66940379258847 78.28824352579885 L 437.891933369481 78.36619889131075 Z" data-length="0.2617898049273668" />
<path d="M 68.01399261929599 67.26992901899702 L 69.39172957160962 67.28043408117863 L 70.98049029264565 67.0294020203859 L 72.54116615904951 66.6627645422744 L 74.03754805135397 66.11350009317943 L 75.4324456899645 65.31780297436856 L 76.93575162951818 64.65330503737374 L 78.69999913069334 64.48018698092832 L 80.6413139552222 64.74375066763092 L 82.63847061254816 65.09026300241061 L 84.57888603707413 65.17888919628732 L 86.5058040606663 65.00767577741723 L 88.44764828719185 64.73319331835228 L 90.39129518204354 64.4787512356606 L 92.3543018388493 64.28890443018562 L 94.31770152436681 64.09811179445843 L 96.20878313587171 63.84670874127671 L 98.26948018851218 63.481777481307596 L 100.45236403089099 63.03773634231137 L 101.86119648239098 62.57838338308947 L 101.6496057615836 62.12351636561202 L 99.98859586885729 61.62661266722458 L 97.7218337878547 61.200873686538735 L 95.63512794331628 60.9526742685211 L 93.47744908142639 60.85954820357075 L 91.26040486697768 60.90122570722072 L 89.14679195952502 61.073470640581185 L 87.1653881720242 61.463334136932616 L 85.27980918752355 61.967665702247274 L 83.36893726496118 62.401083673156265 L 81.46896325239383 62.68704438893866 L 79.53962195446313 62.91484604245624 L 77.57439084413981 63.0779779449696 L 75.4863980520287 63.13080352682594 L 73.2784737921633 63.056201622267245 L 71.11017676031648 63.03825391650568 L 69.07019538105095 63.23804575989414 L 66.92793122050955 63.59932955244728 L 65.19513014958443 64.08323305571462 L 64.48399883961025 64.69758399967667 L 65.09533918427559 65.68484339479888 L 66.5062824581089 66.7029533363451 L 68.01399261929599 67.26992901899702 Z" data-length="0.20978507100190302" />
<path d="M 47.18967696751012 64.49758056034116 L 48.82900688843621 64.49760748214719 L 50.46848992677352 64.49762345845092 L 52.1080527346249 64.4976293303136 L 53.747623217435994 64.49762541130559 L 55.387128184700565 64.49761149244561 L 57.03187046015369 64.50221049207889 L 56.880078114276245 63.07366123287371 L 54.89206366587922 63.11064396598541 L 53.25253381758689 63.11063218723696 L 51.61295969079731 63.11063111844299 L 49.97341503302053 63.110640811640195 L 48.31308548308171 63.09785899255706 L 47.237774418247604 64.3629207220991 L 47.18967696751012 64.49758056034116 Z" data-length="0.06560651686797161" />
<path d="M 650.1016800698119 58.79099175609031 L 652.404653034516 58.64348944801531 L 655.0935731401405 58.25782399517492 L 657.7532410479301 57.978765913212946 L 660.5580816287716 57.78461839958646 L 662.6344022447179 57.36151814783857 L 663.328084819825 56.414553242832476 L 663.2449185318451 55.19612737637161 L 663.360638712923 53.73297688037313 L 663.3681506220278 51.96719823260333 L 664.2228177528982 50.47020605156369 L 666.0204174603161 49.587636077830254 L 668.229863151566 48.81034665586053 L 670.2014928236813 47.96618693457345 L 672.113491163939 47.09930244886292 L 674.2016147195836 46.33549589713041 L 676.3441755153616 45.72117625326793 L 678.673505620098 45.197376843770066 L 681.1063464293944 44.82524747926544 L 683.6609421418598 44.56605196933773 L 686.2156340668228 44.30563406456475 L 688.8471273555101 44.07799646789441 L 691.3047806052776 43.768233716294304 L 693.7155580674274 43.13627641780676 L 695.8072087730076 42.25685674874416 L 696.7320830174568 41.20319662207723 L 695.5653201337101 39.81304122114757 L 693.5199505011161 38.357263071313405 L 691.5925062888128 36.976049899470894 L 689.4571632838122 35.594617761269966 L 688.1108669481198 33.97299715213878 L 688.0558297044066 31.955209724161193 L 688.4793863809998 29.980184889531042 L 689.0449344947516 28.453700312143702 L 689.5809067800919 27.057086020385295 L 688.3695083728595 25.921564064893587 L 685.6040174640019 25.013494924467338 L 682.2664677149925 24.287909580668988 L 680.0840922880171 23.95768365939605 L 677.8228718404465 23.706508991911573 L 675.3192826232221 23.420497593717315 L 672.5609959759018 23.09889747460395 L 669.610676823245 22.878824205238935 L 666.839286240381 22.840971621286876 L 664.0070632698984 22.87249329051425 L 661.1975965801377 22.877933251654447 L 658.390619360316 22.876261952836906 L 655.582039597601 22.874151427947353 L 652.7223013959771 22.839573816635433 L 649.9076498826 22.83913735529105 L 647.2138274042289 23.015798757095418 L 644.7557237185416 23.35585166696927 L 642.3368821978106 23.573901933670292 L 640.1407245073461 23.592008287802617 L 637.8454509888475 23.560596449946814 L 635.1669806740185 23.536107787704257 L 632.2258678878395 23.504680934181327 L 629.6292981819469 23.59287817313683 L 627.6490494027415 23.85912251160664 L 625.798510284877 24.177551879952436 L 623.4735143070062 24.48566460080457 L 620.9284746983827 24.792304811390014 L 618.2627840350406 24.964739447910805 L 615.4596599494067 24.97267602973076 L 612.5595598896587 24.937541639303184 L 609.7026319489767 24.912954502992573 L 606.8454150535498 24.892045383352883 L 604.1056506956301 24.999546180043136 L 601.5515259941503 25.2791483636166 L 599.0972741915053 25.598765217833574 L 596.5881963199571 25.911111807034633 L 594.0758922639221 26.211979830156036 L 591.4263732249028 26.363010968254642 L 588.6008700765324 26.35967227253799 L 585.7152315366225 26.32845308571245 L 582.8797892103979 26.329445719266197 L 580.0546935871963 26.330796127936296 L 577.3832441331526 26.33253209693124 L 574.8735236563399 26.33401514636395 L 572.330306676342 26.335071006123595 L 569.5053482480371 26.33613217566118 L 566.6652562212071 26.33802484225688 L 564.1644880678324 26.330036227432924 L 561.9274694736613 26.302571770152618 L 559.6864510223093 26.353556895707047 L 557.1195625497605 26.595585286805857 L 554.630214899873 26.92216225193178 L 552.1119600628374 27.212615186443756 L 549.5880272194579 27.495210403830544 L 547.0727959781457 27.777018667015064 L 544.549072602384 28.059937858489548 L 542.036263608696 28.341790244040354 L 539.5205295634659 28.62409618543297 L 537.0078265739801 28.906175823365977 L 534.4962654178931 29.18506916471561 L 531.8658593213917 29.423281757823556 L 529.401202001488 29.718541914580854 L 527.031189405255 30.34864938498995 L 525.1680856511994 31.243749132536497 L 523.6224189986701 32.12624908924688 L 522.1074590425532 32.9502606068349 L 521.3049263032214 33.80226984073704 L 522.0734126548389 34.85156600890381 L 524.0448310822518 35.99524341470269 L 526.1020733491091 37.136633448116086 L 528.1313014163192 38.33598632940812 L 530.5862460585223 39.4010281217981 L 533.5823538821635 40.025050347191005 L 536.9046612940862 40.50721177243426 L 539.5593272003991 41.36514492836992 L 541.1946438043389 42.77562512064124 L 542.6284802821766 44.26904623513098 L 544.3456888884268 45.799192182720816 L 546.2556753373317 47.259253036805205 L 548.7733947062989 48.06465850167834 L 551.6405689102593 48.41143944961846 L 554.5351108219832 48.51931706448107 L 557.0166135288238 48.31070357817708 L 559.5086542401572 47.95232125189719 L 562.2101481037992 47.814074654289485 L 565.1127798732235 47.87780048500778 L 567.7773830803402 47.84677813733597 L 569.7288338195357 47.57693376096179 L 571.6156643076899 47.25730520292488 L 574.0442371104318 47.10020031707193 L 576.9204637862109 47.089252391691936 L 579.7329987456302 47.19806964986767 L 582.2961384805703 47.48772936910742 L 584.7837833189326 47.80676705039685 L 587.293346102251 47.9055582450995 L 589.8403731583538 47.85290451284669 L 592.3857206288235 47.90770939166673 L 594.8967779998748 48.16970353123639 L 597.4181830580059 48.49093303558354 L 600.3569715890048 48.74438312099147 L 603.5423142868727 48.97449296252425 L 606.5819427146648 49.42287544649496 L 609.3924801242919 50.31368747050102 L 612.1128242652069 51.19286716941641 L 614.8789389284071 51.648110550199924 L 617.7330678891303 51.90668605098278 L 620.5688882068325 52.040131739111374 L 623.4174804391319 51.951604341359214 L 626.2220349055316 51.97367751426536 L 629.157613414085 52.53580042231481 L 631.8920372224896 53.462813989728396 L 634.639282050243 54.46253489878441 L 637.3796460223789 55.638522893190114 L 640.1774660708439 56.699481261269824 L 643.0612711276439 57.356829208155666 L 645.9864530449688 57.859841988434844 L 647.9018714580591 58.264891368774684 L 648.9245032354323 58.591583906883294 L 650.056478777539 58.788552861591484 L 650.1016800698119 58.79099175609031 Z" data-length="0.7651638549294666" />
      </g>
    </svg>
  